G04 #@! TF.GenerationSoftware,KiCad,Pcbnew,8.0.6*
G04 #@! TF.CreationDate,2025-09-25T22:41:12-06:00*
G04 #@! TF.ProjectId,CargadorWalkieTalkie,43617267-6164-46f7-9257-616c6b696554,0.0*
G04 #@! TF.SameCoordinates,Original*
G04 #@! TF.FileFunction,Copper,L1,Top*
G04 #@! TF.FilePolarity,Positive*
%FSLAX46Y46*%
G04 Gerber Fmt 4.6, Leading zero omitted, Abs format (unit mm)*
G04 Created by KiCad (PCBNEW 8.0.6) date 2025-09-25 22:41:12*
%MOMM*%
%LPD*%
G01*
G04 APERTURE LIST*
G04 #@! TA.AperFunction,ComponentPad*
%ADD10C,1.600000*%
G04 #@! TD*
G04 #@! TA.AperFunction,ComponentPad*
%ADD11O,1.600000X1.600000*%
G04 #@! TD*
G04 #@! TA.AperFunction,ComponentPad*
%ADD12R,2.400000X2.400000*%
G04 #@! TD*
G04 #@! TA.AperFunction,ComponentPad*
%ADD13O,2.400000X2.400000*%
G04 #@! TD*
G04 #@! TA.AperFunction,ComponentPad*
%ADD14R,2.600000X2.600000*%
G04 #@! TD*
G04 #@! TA.AperFunction,ComponentPad*
%ADD15O,2.600000X2.600000*%
G04 #@! TD*
G04 #@! TA.AperFunction,ComponentPad*
%ADD16R,2.200000X2.200000*%
G04 #@! TD*
G04 #@! TA.AperFunction,ComponentPad*
%ADD17O,2.200000X2.200000*%
G04 #@! TD*
G04 #@! TA.AperFunction,ComponentPad*
%ADD18R,3.000000X3.000000*%
G04 #@! TD*
G04 #@! TA.AperFunction,ComponentPad*
%ADD19C,3.000000*%
G04 #@! TD*
G04 #@! TA.AperFunction,Conductor*
%ADD20C,0.200000*%
G04 #@! TD*
G04 APERTURE END LIST*
D10*
X133190000Y-81000000D03*
D11*
X140810000Y-81000000D03*
D12*
X125500000Y-79000000D03*
D13*
X125500000Y-104000000D03*
D14*
X137000000Y-88500000D03*
D15*
X137000000Y-103740000D03*
D16*
X105500000Y-78000000D03*
D17*
X105500000Y-88160000D03*
D16*
X105500000Y-93840000D03*
D17*
X105500000Y-104000000D03*
D16*
X115000000Y-78000000D03*
D17*
X115000000Y-88160000D03*
D18*
X148500000Y-91080000D03*
D19*
X148500000Y-86000000D03*
D18*
X95500000Y-85920000D03*
D19*
X95500000Y-91000000D03*
D16*
X115000000Y-93920000D03*
D17*
X115000000Y-104080000D03*
D20*
X137000000Y-97500000D02*
X148500000Y-86000000D01*
X137000000Y-103740000D02*
X137000000Y-97500000D01*
G04 #@! TA.AperFunction,Conductor*
G36*
X154442539Y-76020185D02*
G01*
X154488294Y-76072989D01*
X154499500Y-76124500D01*
X154499500Y-105875500D01*
X154479815Y-105942539D01*
X154427011Y-105988294D01*
X154375500Y-105999500D01*
X91624500Y-105999500D01*
X91557461Y-105979815D01*
X91511706Y-105927011D01*
X91500500Y-105875500D01*
X91500500Y-104000000D01*
X103894551Y-104000000D01*
X103914317Y-104251151D01*
X103973126Y-104496110D01*
X104069533Y-104728859D01*
X104201160Y-104943653D01*
X104201161Y-104943656D01*
X104201164Y-104943659D01*
X104364776Y-105135224D01*
X104458443Y-105215223D01*
X104556343Y-105298838D01*
X104556346Y-105298839D01*
X104771140Y-105430466D01*
X104939690Y-105500281D01*
X105003889Y-105526873D01*
X105248852Y-105585683D01*
X105500000Y-105605449D01*
X105751148Y-105585683D01*
X105996111Y-105526873D01*
X106228859Y-105430466D01*
X106443659Y-105298836D01*
X106635224Y-105135224D01*
X106798836Y-104943659D01*
X106930466Y-104728859D01*
X107026873Y-104496111D01*
X107085683Y-104251148D01*
X107099153Y-104080000D01*
X113394551Y-104080000D01*
X113414317Y-104331151D01*
X113473126Y-104576110D01*
X113569533Y-104808859D01*
X113701160Y-105023653D01*
X113701161Y-105023656D01*
X113701164Y-105023659D01*
X113864776Y-105215224D01*
X114002944Y-105333231D01*
X114056343Y-105378838D01*
X114056346Y-105378839D01*
X114271140Y-105510466D01*
X114456845Y-105587387D01*
X114503889Y-105606873D01*
X114748852Y-105665683D01*
X115000000Y-105685449D01*
X115251148Y-105665683D01*
X115496111Y-105606873D01*
X115728859Y-105510466D01*
X115943659Y-105378836D01*
X116135224Y-105215224D01*
X116298836Y-105023659D01*
X116430466Y-104808859D01*
X116526873Y-104576111D01*
X116585683Y-104331148D01*
X116605449Y-104080000D01*
X116599152Y-103999995D01*
X123794732Y-103999995D01*
X123794732Y-104000004D01*
X123813777Y-104254154D01*
X123831350Y-104331148D01*
X123870492Y-104502637D01*
X123963607Y-104739888D01*
X124091041Y-104960612D01*
X124249950Y-105159877D01*
X124436783Y-105333232D01*
X124647366Y-105476805D01*
X124647371Y-105476807D01*
X124647372Y-105476808D01*
X124647373Y-105476809D01*
X124751333Y-105526873D01*
X124876992Y-105587387D01*
X124876993Y-105587387D01*
X124876996Y-105587389D01*
X125120542Y-105662513D01*
X125372565Y-105700500D01*
X125627435Y-105700500D01*
X125879458Y-105662513D01*
X126123004Y-105587389D01*
X126352634Y-105476805D01*
X126563217Y-105333232D01*
X126750050Y-105159877D01*
X126908959Y-104960612D01*
X127036393Y-104739888D01*
X127129508Y-104502637D01*
X127186222Y-104254157D01*
X127205268Y-104000000D01*
X127186222Y-103745843D01*
X127184887Y-103739995D01*
X135194451Y-103739995D01*
X135194451Y-103740004D01*
X135214616Y-104009101D01*
X135274664Y-104272188D01*
X135274666Y-104272195D01*
X135362547Y-104496111D01*
X135373257Y-104523398D01*
X135508185Y-104757102D01*
X135644080Y-104927509D01*
X135676442Y-104968089D01*
X135856571Y-105135223D01*
X135874259Y-105151635D01*
X136097226Y-105303651D01*
X136340359Y-105420738D01*
X136598228Y-105500280D01*
X136598229Y-105500280D01*
X136598232Y-105500281D01*
X136865063Y-105540499D01*
X136865068Y-105540499D01*
X136865071Y-105540500D01*
X136865072Y-105540500D01*
X137134928Y-105540500D01*
X137134929Y-105540500D01*
X137134936Y-105540499D01*
X137401767Y-105500281D01*
X137401768Y-105500280D01*
X137401772Y-105500280D01*
X137659641Y-105420738D01*
X137902775Y-105303651D01*
X138125741Y-105151635D01*
X138323561Y-104968085D01*
X138491815Y-104757102D01*
X138626743Y-104523398D01*
X138725334Y-104272195D01*
X138785383Y-104009103D01*
X138805549Y-103740000D01*
X138785383Y-103470897D01*
X138725334Y-103207805D01*
X138626743Y-102956602D01*
X138491815Y-102722898D01*
X138323561Y-102511915D01*
X138323560Y-102511914D01*
X138323557Y-102511910D01*
X138125741Y-102328365D01*
X138083404Y-102299500D01*
X137902775Y-102176349D01*
X137902769Y-102176346D01*
X137902768Y-102176345D01*
X137902767Y-102176344D01*
X137670699Y-102064587D01*
X137618839Y-102017765D01*
X137600500Y-101952867D01*
X137600500Y-97800096D01*
X137620185Y-97733057D01*
X137636814Y-97712420D01*
X145817098Y-89532135D01*
X146499500Y-89532135D01*
X146499500Y-92627870D01*
X146499501Y-92627876D01*
X146505908Y-92687483D01*
X146556202Y-92822328D01*
X146556206Y-92822335D01*
X146642452Y-92937544D01*
X146642455Y-92937547D01*
X146757664Y-93023793D01*
X146757671Y-93023797D01*
X146892517Y-93074091D01*
X146892516Y-93074091D01*
X146899444Y-93074835D01*
X146952127Y-93080500D01*
X150047872Y-93080499D01*
X150107483Y-93074091D01*
X150242331Y-93023796D01*
X150357546Y-92937546D01*
X150443796Y-92822331D01*
X150494091Y-92687483D01*
X150500500Y-92627873D01*
X150500499Y-89532128D01*
X150494091Y-89472517D01*
X150488989Y-89458839D01*
X150443797Y-89337671D01*
X150443793Y-89337664D01*
X150357547Y-89222455D01*
X150357544Y-89222452D01*
X150242335Y-89136206D01*
X150242328Y-89136202D01*
X150107482Y-89085908D01*
X150107483Y-89085908D01*
X150047883Y-89079501D01*
X150047881Y-89079500D01*
X150047873Y-89079500D01*
X150047864Y-89079500D01*
X146952129Y-89079500D01*
X146952123Y-89079501D01*
X146892516Y-89085908D01*
X146757671Y-89136202D01*
X146757664Y-89136206D01*
X146642455Y-89222452D01*
X146642452Y-89222455D01*
X146556206Y-89337664D01*
X146556202Y-89337671D01*
X146505908Y-89472517D01*
X146499501Y-89532116D01*
X146499501Y-89532123D01*
X146499500Y-89532135D01*
X145817098Y-89532135D01*
X147509374Y-87839859D01*
X147570695Y-87806376D01*
X147640387Y-87811360D01*
X147656474Y-87818707D01*
X147666839Y-87824367D01*
X147934954Y-87924369D01*
X147934960Y-87924370D01*
X147934962Y-87924371D01*
X148214566Y-87985195D01*
X148214568Y-87985195D01*
X148214572Y-87985196D01*
X148468220Y-88003337D01*
X148499999Y-88005610D01*
X148500000Y-88005610D01*
X148500001Y-88005610D01*
X148528595Y-88003564D01*
X148785428Y-87985196D01*
X149065046Y-87924369D01*
X149333161Y-87824367D01*
X149584315Y-87687226D01*
X149813395Y-87515739D01*
X150015739Y-87313395D01*
X150187226Y-87084315D01*
X150324367Y-86833161D01*
X150424369Y-86565046D01*
X150485196Y-86285428D01*
X150505610Y-86000000D01*
X150485196Y-85714572D01*
X150424369Y-85434954D01*
X150324367Y-85166839D01*
X150187226Y-84915685D01*
X150187224Y-84915682D01*
X150015745Y-84686612D01*
X150015729Y-84686594D01*
X149813405Y-84484270D01*
X149813387Y-84484254D01*
X149584317Y-84312775D01*
X149584309Y-84312770D01*
X149333166Y-84175635D01*
X149333167Y-84175635D01*
X149225915Y-84135632D01*
X149065046Y-84075631D01*
X149065043Y-84075630D01*
X149065037Y-84075628D01*
X148785433Y-84014804D01*
X148500001Y-83994390D01*
X148499999Y-83994390D01*
X148214566Y-84014804D01*
X147934962Y-84075628D01*
X147666833Y-84175635D01*
X147415690Y-84312770D01*
X147415682Y-84312775D01*
X147186612Y-84484254D01*
X147186594Y-84484270D01*
X146984270Y-84686594D01*
X146984254Y-84686612D01*
X146812775Y-84915682D01*
X146812770Y-84915690D01*
X146675635Y-85166833D01*
X146575628Y-85434962D01*
X146514804Y-85714566D01*
X146494390Y-85999998D01*
X146494390Y-86000001D01*
X146514804Y-86285433D01*
X146575628Y-86565037D01*
X146575630Y-86565043D01*
X146575631Y-86565046D01*
X146675633Y-86833161D01*
X146680707Y-86842454D01*
X146681288Y-86843517D01*
X146696140Y-86911790D01*
X146671724Y-86977254D01*
X146660137Y-86990626D01*
X136631286Y-97019478D01*
X136519481Y-97131282D01*
X136519479Y-97131285D01*
X136469361Y-97218094D01*
X136469359Y-97218096D01*
X136440425Y-97268209D01*
X136440424Y-97268210D01*
X136440423Y-97268215D01*
X136399499Y-97420943D01*
X136399499Y-97420945D01*
X136399499Y-97589046D01*
X136399500Y-97589059D01*
X136399500Y-101952866D01*
X136379815Y-102019905D01*
X136329302Y-102064586D01*
X136097230Y-102176346D01*
X135874258Y-102328365D01*
X135676442Y-102511910D01*
X135508185Y-102722898D01*
X135373258Y-102956599D01*
X135373256Y-102956603D01*
X135274666Y-103207804D01*
X135274664Y-103207811D01*
X135214616Y-103470898D01*
X135194451Y-103739995D01*
X127184887Y-103739995D01*
X127129508Y-103497363D01*
X127036393Y-103260112D01*
X126908959Y-103039388D01*
X126750050Y-102840123D01*
X126563217Y-102666768D01*
X126352634Y-102523195D01*
X126352630Y-102523193D01*
X126352627Y-102523191D01*
X126352626Y-102523190D01*
X126123006Y-102412612D01*
X126123008Y-102412612D01*
X125879466Y-102337489D01*
X125879462Y-102337488D01*
X125879458Y-102337487D01*
X125758231Y-102319214D01*
X125627440Y-102299500D01*
X125627435Y-102299500D01*
X125372565Y-102299500D01*
X125372559Y-102299500D01*
X125215609Y-102323157D01*
X125120542Y-102337487D01*
X125120539Y-102337488D01*
X125120533Y-102337489D01*
X124876992Y-102412612D01*
X124647373Y-102523190D01*
X124647372Y-102523191D01*
X124436782Y-102666768D01*
X124249952Y-102840121D01*
X124249950Y-102840123D01*
X124091041Y-103039388D01*
X123963608Y-103260109D01*
X123870492Y-103497362D01*
X123870490Y-103497369D01*
X123813777Y-103745845D01*
X123794732Y-103999995D01*
X116599152Y-103999995D01*
X116585683Y-103828852D01*
X116526873Y-103583889D01*
X116493736Y-103503889D01*
X116430466Y-103351140D01*
X116298839Y-103136346D01*
X116298838Y-103136343D01*
X116230511Y-103056343D01*
X116135224Y-102944776D01*
X116008571Y-102836604D01*
X115943656Y-102781161D01*
X115943653Y-102781160D01*
X115728859Y-102649533D01*
X115496110Y-102553126D01*
X115251151Y-102494317D01*
X115000000Y-102474551D01*
X114748848Y-102494317D01*
X114503889Y-102553126D01*
X114271140Y-102649533D01*
X114056346Y-102781160D01*
X114056343Y-102781161D01*
X113864776Y-102944776D01*
X113701161Y-103136343D01*
X113701160Y-103136346D01*
X113569533Y-103351140D01*
X113473126Y-103583889D01*
X113414317Y-103828848D01*
X113394551Y-104080000D01*
X107099153Y-104080000D01*
X107105449Y-104000000D01*
X107085683Y-103748852D01*
X107026873Y-103503889D01*
X106930466Y-103271141D01*
X106930466Y-103271140D01*
X106798839Y-103056346D01*
X106798838Y-103056343D01*
X106761875Y-103013066D01*
X106635224Y-102864776D01*
X106508571Y-102756604D01*
X106443656Y-102701161D01*
X106443653Y-102701160D01*
X106228859Y-102569533D01*
X105996110Y-102473126D01*
X105751151Y-102414317D01*
X105500000Y-102394551D01*
X105248848Y-102414317D01*
X105003889Y-102473126D01*
X104771140Y-102569533D01*
X104556346Y-102701160D01*
X104556343Y-102701161D01*
X104364776Y-102864776D01*
X104201161Y-103056343D01*
X104201160Y-103056346D01*
X104069533Y-103271140D01*
X103973126Y-103503889D01*
X103914317Y-103748848D01*
X103894551Y-104000000D01*
X91500500Y-104000000D01*
X91500500Y-90999998D01*
X93494891Y-90999998D01*
X93494891Y-91000001D01*
X93515300Y-91285362D01*
X93576109Y-91564895D01*
X93676091Y-91832958D01*
X93813191Y-92084038D01*
X93813196Y-92084046D01*
X93919882Y-92226561D01*
X93919883Y-92226562D01*
X94814767Y-91331677D01*
X94826497Y-91359995D01*
X94909670Y-91484472D01*
X95015528Y-91590330D01*
X95140005Y-91673503D01*
X95168320Y-91685231D01*
X94273436Y-92580115D01*
X94415960Y-92686807D01*
X94415961Y-92686808D01*
X94667042Y-92823908D01*
X94667041Y-92823908D01*
X94935104Y-92923890D01*
X95214637Y-92984699D01*
X95499999Y-93005109D01*
X95500001Y-93005109D01*
X95785362Y-92984699D01*
X96064895Y-92923890D01*
X96332958Y-92823908D01*
X96574282Y-92692135D01*
X103899500Y-92692135D01*
X103899500Y-94987870D01*
X103899501Y-94987876D01*
X103905908Y-95047483D01*
X103956202Y-95182328D01*
X103956206Y-95182335D01*
X104042452Y-95297544D01*
X104042455Y-95297547D01*
X104157664Y-95383793D01*
X104157671Y-95383797D01*
X104292517Y-95434091D01*
X104292516Y-95434091D01*
X104299444Y-95434835D01*
X104352127Y-95440500D01*
X106647872Y-95440499D01*
X106707483Y-95434091D01*
X106842331Y-95383796D01*
X106957546Y-95297546D01*
X107043796Y-95182331D01*
X107094091Y-95047483D01*
X107100500Y-94987873D01*
X107100499Y-92772155D01*
X113400000Y-92772155D01*
X113400000Y-93670000D01*
X114509252Y-93670000D01*
X114487482Y-93707708D01*
X114450000Y-93847591D01*
X114450000Y-93992409D01*
X114487482Y-94132292D01*
X114509252Y-94170000D01*
X113400000Y-94170000D01*
X113400000Y-95067844D01*
X113406401Y-95127372D01*
X113406403Y-95127379D01*
X113456645Y-95262086D01*
X113456649Y-95262093D01*
X113542809Y-95377187D01*
X113542812Y-95377190D01*
X113657906Y-95463350D01*
X113657913Y-95463354D01*
X113792620Y-95513596D01*
X113792627Y-95513598D01*
X113852155Y-95519999D01*
X113852172Y-95520000D01*
X114750000Y-95520000D01*
X114750000Y-94410747D01*
X114787708Y-94432518D01*
X114927591Y-94470000D01*
X115072409Y-94470000D01*
X115212292Y-94432518D01*
X115250000Y-94410747D01*
X115250000Y-95520000D01*
X116147828Y-95520000D01*
X116147844Y-95519999D01*
X116207372Y-95513598D01*
X116207379Y-95513596D01*
X116342086Y-95463354D01*
X116342093Y-95463350D01*
X116457187Y-95377190D01*
X116457190Y-95377187D01*
X116543350Y-95262093D01*
X116543354Y-95262086D01*
X116593596Y-95127379D01*
X116593598Y-95127372D01*
X116599999Y-95067844D01*
X116600000Y-95067827D01*
X116600000Y-94170000D01*
X115490748Y-94170000D01*
X115512518Y-94132292D01*
X115550000Y-93992409D01*
X115550000Y-93847591D01*
X115512518Y-93707708D01*
X115490748Y-93670000D01*
X116600000Y-93670000D01*
X116600000Y-92772172D01*
X116599999Y-92772155D01*
X116593598Y-92712627D01*
X116593596Y-92712620D01*
X116543354Y-92577913D01*
X116543350Y-92577906D01*
X116457190Y-92462812D01*
X116457187Y-92462809D01*
X116342093Y-92376649D01*
X116342086Y-92376645D01*
X116207379Y-92326403D01*
X116207372Y-92326401D01*
X116147844Y-92320000D01*
X115250000Y-92320000D01*
X115250000Y-93429252D01*
X115212292Y-93407482D01*
X115072409Y-93370000D01*
X114927591Y-93370000D01*
X114787708Y-93407482D01*
X114750000Y-93429252D01*
X114750000Y-92320000D01*
X113852155Y-92320000D01*
X113792627Y-92326401D01*
X113792620Y-92326403D01*
X113657913Y-92376645D01*
X113657906Y-92376649D01*
X113542812Y-92462809D01*
X113542809Y-92462812D01*
X113456649Y-92577906D01*
X113456645Y-92577913D01*
X113406403Y-92712620D01*
X113406401Y-92712627D01*
X113400000Y-92772155D01*
X107100499Y-92772155D01*
X107100499Y-92692128D01*
X107094091Y-92632517D01*
X107074546Y-92580115D01*
X107043797Y-92497671D01*
X107043793Y-92497664D01*
X106957547Y-92382455D01*
X106957544Y-92382452D01*
X106842335Y-92296206D01*
X106842328Y-92296202D01*
X106707482Y-92245908D01*
X106707483Y-92245908D01*
X106647883Y-92239501D01*
X106647881Y-92239500D01*
X106647873Y-92239500D01*
X106647864Y-92239500D01*
X104352129Y-92239500D01*
X104352123Y-92239501D01*
X104292516Y-92245908D01*
X104157671Y-92296202D01*
X104157664Y-92296206D01*
X104042455Y-92382452D01*
X104042452Y-92382455D01*
X103956206Y-92497664D01*
X103956202Y-92497671D01*
X103905908Y-92632517D01*
X103900072Y-92686803D01*
X103899501Y-92692123D01*
X103899500Y-92692135D01*
X96574282Y-92692135D01*
X96584047Y-92686803D01*
X96726561Y-92580116D01*
X96726562Y-92580115D01*
X95831679Y-91685231D01*
X95859995Y-91673503D01*
X95984472Y-91590330D01*
X96090330Y-91484472D01*
X96173503Y-91359995D01*
X96185231Y-91331678D01*
X97080115Y-92226562D01*
X97080116Y-92226561D01*
X97186803Y-92084047D01*
X97323908Y-91832958D01*
X97423890Y-91564895D01*
X97484699Y-91285362D01*
X97505109Y-91000001D01*
X97505109Y-90999998D01*
X97484699Y-90714637D01*
X97423890Y-90435104D01*
X97323908Y-90167041D01*
X97186808Y-89915961D01*
X97186807Y-89915960D01*
X97080115Y-89773436D01*
X96185231Y-90668320D01*
X96173503Y-90640005D01*
X96090330Y-90515528D01*
X95984472Y-90409670D01*
X95859995Y-90326497D01*
X95831678Y-90314767D01*
X96726562Y-89419883D01*
X96726561Y-89419882D01*
X96584046Y-89313196D01*
X96584038Y-89313191D01*
X96332957Y-89176091D01*
X96332958Y-89176091D01*
X96064895Y-89076109D01*
X95785362Y-89015300D01*
X95500001Y-88994891D01*
X95499999Y-88994891D01*
X95214637Y-89015300D01*
X94935104Y-89076109D01*
X94667041Y-89176091D01*
X94415961Y-89313191D01*
X94415953Y-89313196D01*
X94273437Y-89419882D01*
X94273436Y-89419883D01*
X95168321Y-90314767D01*
X95140005Y-90326497D01*
X95015528Y-90409670D01*
X94909670Y-90515528D01*
X94826497Y-90640005D01*
X94814768Y-90668321D01*
X93919883Y-89773436D01*
X93919882Y-89773437D01*
X93813196Y-89915953D01*
X93813191Y-89915961D01*
X93676091Y-90167041D01*
X93576109Y-90435104D01*
X93515300Y-90714637D01*
X93494891Y-90999998D01*
X91500500Y-90999998D01*
X91500500Y-88160000D01*
X103894551Y-88160000D01*
X103914317Y-88411151D01*
X103973126Y-88656110D01*
X104069533Y-88888859D01*
X104201160Y-89103653D01*
X104201161Y-89103656D01*
X104201164Y-89103659D01*
X104364776Y-89295224D01*
X104510732Y-89419882D01*
X104556343Y-89458838D01*
X104556346Y-89458839D01*
X104771140Y-89590466D01*
X105002737Y-89686396D01*
X105003889Y-89686873D01*
X105248852Y-89745683D01*
X105500000Y-89765449D01*
X105751148Y-89745683D01*
X105996111Y-89686873D01*
X106228859Y-89590466D01*
X106443659Y-89458836D01*
X106635224Y-89295224D01*
X106798836Y-89103659D01*
X106930466Y-88888859D01*
X107026873Y-88656111D01*
X107085683Y-88411148D01*
X107105449Y-88160000D01*
X107085773Y-87909999D01*
X113414728Y-87909999D01*
X113414729Y-87910000D01*
X114509252Y-87910000D01*
X114487482Y-87947708D01*
X114450000Y-88087591D01*
X114450000Y-88232409D01*
X114487482Y-88372292D01*
X114509252Y-88410000D01*
X113414728Y-88410000D01*
X113414811Y-88411067D01*
X113473603Y-88655956D01*
X113569980Y-88888631D01*
X113701568Y-89103362D01*
X113701571Y-89103367D01*
X113865130Y-89294869D01*
X114056632Y-89458428D01*
X114056637Y-89458431D01*
X114271368Y-89590019D01*
X114504043Y-89686396D01*
X114748932Y-89745188D01*
X114749999Y-89745271D01*
X114750000Y-89745271D01*
X114750000Y-88650747D01*
X114787708Y-88672518D01*
X114927591Y-88710000D01*
X115072409Y-88710000D01*
X115212292Y-88672518D01*
X115250000Y-88650747D01*
X115250000Y-89745271D01*
X115251067Y-89745188D01*
X115495956Y-89686396D01*
X115728631Y-89590019D01*
X115943362Y-89458431D01*
X115943367Y-89458428D01*
X116134869Y-89294869D01*
X116298428Y-89103367D01*
X116298431Y-89103362D01*
X116430019Y-88888631D01*
X116526396Y-88655956D01*
X116585188Y-88411067D01*
X116585272Y-88410000D01*
X115490748Y-88410000D01*
X115512518Y-88372292D01*
X115550000Y-88232409D01*
X115550000Y-88087591D01*
X115512518Y-87947708D01*
X115490748Y-87910000D01*
X116585271Y-87910000D01*
X116585271Y-87909999D01*
X116585188Y-87908932D01*
X116526396Y-87664043D01*
X116430019Y-87431368D01*
X116298431Y-87216637D01*
X116298428Y-87216632D01*
X116243342Y-87152135D01*
X135199500Y-87152135D01*
X135199500Y-89847870D01*
X135199501Y-89847876D01*
X135205908Y-89907483D01*
X135256202Y-90042328D01*
X135256206Y-90042335D01*
X135342452Y-90157544D01*
X135342455Y-90157547D01*
X135457664Y-90243793D01*
X135457671Y-90243797D01*
X135592517Y-90294091D01*
X135592516Y-90294091D01*
X135599444Y-90294835D01*
X135652127Y-90300500D01*
X138347872Y-90300499D01*
X138407483Y-90294091D01*
X138542331Y-90243796D01*
X138657546Y-90157546D01*
X138743796Y-90042331D01*
X138794091Y-89907483D01*
X138800500Y-89847873D01*
X138800499Y-87152128D01*
X138794091Y-87092517D01*
X138768957Y-87025130D01*
X138743797Y-86957671D01*
X138743793Y-86957664D01*
X138657547Y-86842455D01*
X138657544Y-86842452D01*
X138542335Y-86756206D01*
X138542328Y-86756202D01*
X138407482Y-86705908D01*
X138407483Y-86705908D01*
X138347883Y-86699501D01*
X138347881Y-86699500D01*
X138347873Y-86699500D01*
X138347864Y-86699500D01*
X135652129Y-86699500D01*
X135652123Y-86699501D01*
X135592516Y-86705908D01*
X135457671Y-86756202D01*
X135457664Y-86756206D01*
X135342455Y-86842452D01*
X135342452Y-86842455D01*
X135256206Y-86957664D01*
X135256202Y-86957671D01*
X135205908Y-87092517D01*
X135199501Y-87152116D01*
X135199501Y-87152123D01*
X135199500Y-87152135D01*
X116243342Y-87152135D01*
X116134869Y-87025130D01*
X115943367Y-86861571D01*
X115943362Y-86861568D01*
X115728631Y-86729980D01*
X115495956Y-86633603D01*
X115251064Y-86574811D01*
X115250000Y-86574726D01*
X115250000Y-87669252D01*
X115212292Y-87647482D01*
X115072409Y-87610000D01*
X114927591Y-87610000D01*
X114787708Y-87647482D01*
X114750000Y-87669252D01*
X114750000Y-86574726D01*
X114748935Y-86574811D01*
X114504043Y-86633603D01*
X114271368Y-86729980D01*
X114056637Y-86861568D01*
X114056632Y-86861571D01*
X113865130Y-87025130D01*
X113701571Y-87216632D01*
X113701568Y-87216637D01*
X113569980Y-87431368D01*
X113473603Y-87664043D01*
X113414811Y-87908932D01*
X113414728Y-87909999D01*
X107085773Y-87909999D01*
X107085683Y-87908852D01*
X107026873Y-87663889D01*
X106965508Y-87515739D01*
X106930466Y-87431140D01*
X106798839Y-87216346D01*
X106798838Y-87216343D01*
X106743992Y-87152127D01*
X106635224Y-87024776D01*
X106444136Y-86861571D01*
X106443656Y-86861161D01*
X106443653Y-86861160D01*
X106228859Y-86729533D01*
X105996110Y-86633126D01*
X105751151Y-86574317D01*
X105500000Y-86554551D01*
X105248848Y-86574317D01*
X105003889Y-86633126D01*
X104771140Y-86729533D01*
X104556346Y-86861160D01*
X104556343Y-86861161D01*
X104364776Y-87024776D01*
X104201161Y-87216343D01*
X104201160Y-87216346D01*
X104069533Y-87431140D01*
X103973126Y-87663889D01*
X103914317Y-87908848D01*
X103894551Y-88160000D01*
X91500500Y-88160000D01*
X91500500Y-84372135D01*
X93499500Y-84372135D01*
X93499500Y-87467870D01*
X93499501Y-87467876D01*
X93505908Y-87527483D01*
X93556202Y-87662328D01*
X93556206Y-87662335D01*
X93642452Y-87777544D01*
X93642455Y-87777547D01*
X93757664Y-87863793D01*
X93757671Y-87863797D01*
X93892517Y-87914091D01*
X93892516Y-87914091D01*
X93899444Y-87914835D01*
X93952127Y-87920500D01*
X97047872Y-87920499D01*
X97107483Y-87914091D01*
X97242331Y-87863796D01*
X97357546Y-87777546D01*
X97443796Y-87662331D01*
X97494091Y-87527483D01*
X97500500Y-87467873D01*
X97500499Y-84372128D01*
X97494091Y-84312517D01*
X97443796Y-84177669D01*
X97443795Y-84177668D01*
X97443793Y-84177664D01*
X97357547Y-84062455D01*
X97357544Y-84062452D01*
X97242335Y-83976206D01*
X97242328Y-83976202D01*
X97107482Y-83925908D01*
X97107483Y-83925908D01*
X97047883Y-83919501D01*
X97047881Y-83919500D01*
X97047873Y-83919500D01*
X97047864Y-83919500D01*
X93952129Y-83919500D01*
X93952123Y-83919501D01*
X93892516Y-83925908D01*
X93757671Y-83976202D01*
X93757664Y-83976206D01*
X93642455Y-84062452D01*
X93642452Y-84062455D01*
X93556206Y-84177664D01*
X93556202Y-84177671D01*
X93505908Y-84312517D01*
X93499501Y-84372116D01*
X93499501Y-84372123D01*
X93499500Y-84372135D01*
X91500500Y-84372135D01*
X91500500Y-80999998D01*
X131884532Y-80999998D01*
X131884532Y-81000001D01*
X131904364Y-81226686D01*
X131904366Y-81226697D01*
X131963258Y-81446488D01*
X131963261Y-81446497D01*
X132059431Y-81652732D01*
X132059432Y-81652734D01*
X132189954Y-81839141D01*
X132350858Y-82000045D01*
X132350861Y-82000047D01*
X132537266Y-82130568D01*
X132743504Y-82226739D01*
X132963308Y-82285635D01*
X133125230Y-82299801D01*
X133189998Y-82305468D01*
X133190000Y-82305468D01*
X133190002Y-82305468D01*
X133246673Y-82300509D01*
X133416692Y-82285635D01*
X133636496Y-82226739D01*
X133842734Y-82130568D01*
X134029139Y-82000047D01*
X134190047Y-81839139D01*
X134320568Y-81652734D01*
X134416739Y-81446496D01*
X134475635Y-81226692D01*
X134495468Y-81000000D01*
X134495468Y-80999998D01*
X139504532Y-80999998D01*
X139504532Y-81000001D01*
X139524364Y-81226686D01*
X139524366Y-81226697D01*
X139583258Y-81446488D01*
X139583261Y-81446497D01*
X139679431Y-81652732D01*
X139679432Y-81652734D01*
X139809954Y-81839141D01*
X139970858Y-82000045D01*
X139970861Y-82000047D01*
X140157266Y-82130568D01*
X140363504Y-82226739D01*
X140583308Y-82285635D01*
X140745230Y-82299801D01*
X140809998Y-82305468D01*
X140810000Y-82305468D01*
X140810002Y-82305468D01*
X140866673Y-82300509D01*
X141036692Y-82285635D01*
X141256496Y-82226739D01*
X141462734Y-82130568D01*
X141649139Y-82000047D01*
X141810047Y-81839139D01*
X141940568Y-81652734D01*
X142036739Y-81446496D01*
X142095635Y-81226692D01*
X142115468Y-81000000D01*
X142095635Y-80773308D01*
X142036739Y-80553504D01*
X141940568Y-80347266D01*
X141810047Y-80160861D01*
X141810045Y-80160858D01*
X141649141Y-79999954D01*
X141462734Y-79869432D01*
X141462732Y-79869431D01*
X141256497Y-79773261D01*
X141256488Y-79773258D01*
X141036697Y-79714366D01*
X141036693Y-79714365D01*
X141036692Y-79714365D01*
X141036691Y-79714364D01*
X141036686Y-79714364D01*
X140810002Y-79694532D01*
X140809998Y-79694532D01*
X140583313Y-79714364D01*
X140583302Y-79714366D01*
X140363511Y-79773258D01*
X140363502Y-79773261D01*
X140157267Y-79869431D01*
X140157265Y-79869432D01*
X139970858Y-79999954D01*
X139809954Y-80160858D01*
X139679432Y-80347265D01*
X139679431Y-80347267D01*
X139583261Y-80553502D01*
X139583258Y-80553511D01*
X139524366Y-80773302D01*
X139524364Y-80773313D01*
X139504532Y-80999998D01*
X134495468Y-80999998D01*
X134475635Y-80773308D01*
X134416739Y-80553504D01*
X134320568Y-80347266D01*
X134190047Y-80160861D01*
X134190045Y-80160858D01*
X134029141Y-79999954D01*
X133842734Y-79869432D01*
X133842732Y-79869431D01*
X133636497Y-79773261D01*
X133636488Y-79773258D01*
X133416697Y-79714366D01*
X133416693Y-79714365D01*
X133416692Y-79714365D01*
X133416691Y-79714364D01*
X133416686Y-79714364D01*
X133190002Y-79694532D01*
X133189998Y-79694532D01*
X132963313Y-79714364D01*
X132963302Y-79714366D01*
X132743511Y-79773258D01*
X132743502Y-79773261D01*
X132537267Y-79869431D01*
X132537265Y-79869432D01*
X132350858Y-79999954D01*
X132189954Y-80160858D01*
X132059432Y-80347265D01*
X132059431Y-80347267D01*
X131963261Y-80553502D01*
X131963258Y-80553511D01*
X131904366Y-80773302D01*
X131904364Y-80773313D01*
X131884532Y-80999998D01*
X91500500Y-80999998D01*
X91500500Y-76852135D01*
X103899500Y-76852135D01*
X103899500Y-79147870D01*
X103899501Y-79147876D01*
X103905908Y-79207483D01*
X103956202Y-79342328D01*
X103956206Y-79342335D01*
X104042452Y-79457544D01*
X104042455Y-79457547D01*
X104157664Y-79543793D01*
X104157671Y-79543797D01*
X104292517Y-79594091D01*
X104292516Y-79594091D01*
X104299444Y-79594835D01*
X104352127Y-79600500D01*
X106647872Y-79600499D01*
X106707483Y-79594091D01*
X106842331Y-79543796D01*
X106957546Y-79457546D01*
X107043796Y-79342331D01*
X107094091Y-79207483D01*
X107100500Y-79147873D01*
X107100499Y-76852135D01*
X113399500Y-76852135D01*
X113399500Y-79147870D01*
X113399501Y-79147876D01*
X113405908Y-79207483D01*
X113456202Y-79342328D01*
X113456206Y-79342335D01*
X113542452Y-79457544D01*
X113542455Y-79457547D01*
X113657664Y-79543793D01*
X113657671Y-79543797D01*
X113792517Y-79594091D01*
X113792516Y-79594091D01*
X113799444Y-79594835D01*
X113852127Y-79600500D01*
X116147872Y-79600499D01*
X116207483Y-79594091D01*
X116342331Y-79543796D01*
X116457546Y-79457546D01*
X116543796Y-79342331D01*
X116594091Y-79207483D01*
X116600500Y-79147873D01*
X116600499Y-77752135D01*
X123799500Y-77752135D01*
X123799500Y-80247870D01*
X123799501Y-80247876D01*
X123805908Y-80307483D01*
X123856202Y-80442328D01*
X123856206Y-80442335D01*
X123942452Y-80557544D01*
X123942455Y-80557547D01*
X124057664Y-80643793D01*
X124057671Y-80643797D01*
X124192517Y-80694091D01*
X124192516Y-80694091D01*
X124199444Y-80694835D01*
X124252127Y-80700500D01*
X126747872Y-80700499D01*
X126807483Y-80694091D01*
X126942331Y-80643796D01*
X127057546Y-80557546D01*
X127143796Y-80442331D01*
X127194091Y-80307483D01*
X127200500Y-80247873D01*
X127200499Y-77752128D01*
X127194091Y-77692517D01*
X127143796Y-77557669D01*
X127143795Y-77557668D01*
X127143793Y-77557664D01*
X127057547Y-77442455D01*
X127057544Y-77442452D01*
X126942335Y-77356206D01*
X126942328Y-77356202D01*
X126807482Y-77305908D01*
X126807483Y-77305908D01*
X126747883Y-77299501D01*
X126747881Y-77299500D01*
X126747873Y-77299500D01*
X126747864Y-77299500D01*
X124252129Y-77299500D01*
X124252123Y-77299501D01*
X124192516Y-77305908D01*
X124057671Y-77356202D01*
X124057664Y-77356206D01*
X123942455Y-77442452D01*
X123942452Y-77442455D01*
X123856206Y-77557664D01*
X123856202Y-77557671D01*
X123805908Y-77692517D01*
X123799501Y-77752116D01*
X123799501Y-77752123D01*
X123799500Y-77752135D01*
X116600499Y-77752135D01*
X116600499Y-76852128D01*
X116594091Y-76792517D01*
X116543796Y-76657669D01*
X116543795Y-76657668D01*
X116543793Y-76657664D01*
X116457547Y-76542455D01*
X116457544Y-76542452D01*
X116342335Y-76456206D01*
X116342328Y-76456202D01*
X116207482Y-76405908D01*
X116207483Y-76405908D01*
X116147883Y-76399501D01*
X116147881Y-76399500D01*
X116147873Y-76399500D01*
X116147864Y-76399500D01*
X113852129Y-76399500D01*
X113852123Y-76399501D01*
X113792516Y-76405908D01*
X113657671Y-76456202D01*
X113657664Y-76456206D01*
X113542455Y-76542452D01*
X113542452Y-76542455D01*
X113456206Y-76657664D01*
X113456202Y-76657671D01*
X113405908Y-76792517D01*
X113399501Y-76852116D01*
X113399501Y-76852123D01*
X113399500Y-76852135D01*
X107100499Y-76852135D01*
X107100499Y-76852128D01*
X107094091Y-76792517D01*
X107043796Y-76657669D01*
X107043795Y-76657668D01*
X107043793Y-76657664D01*
X106957547Y-76542455D01*
X106957544Y-76542452D01*
X106842335Y-76456206D01*
X106842328Y-76456202D01*
X106707482Y-76405908D01*
X106707483Y-76405908D01*
X106647883Y-76399501D01*
X106647881Y-76399500D01*
X106647873Y-76399500D01*
X106647864Y-76399500D01*
X104352129Y-76399500D01*
X104352123Y-76399501D01*
X104292516Y-76405908D01*
X104157671Y-76456202D01*
X104157664Y-76456206D01*
X104042455Y-76542452D01*
X104042452Y-76542455D01*
X103956206Y-76657664D01*
X103956202Y-76657671D01*
X103905908Y-76792517D01*
X103899501Y-76852116D01*
X103899501Y-76852123D01*
X103899500Y-76852135D01*
X91500500Y-76852135D01*
X91500500Y-76124500D01*
X91520185Y-76057461D01*
X91572989Y-76011706D01*
X91624500Y-76000500D01*
X154375500Y-76000500D01*
X154442539Y-76020185D01*
G37*
G04 #@! TD.AperFunction*
M02*
