%TF.GenerationSoftware,KiCad,Pcbnew,8.0.6*%
%TF.CreationDate,2024-11-24T22:30:01-06:00*%
%TF.ProjectId,CargadorWalkieTalkie,43617267-6164-46f7-9257-616c6b696554,0.0*%
%TF.SameCoordinates,Original*%
%TF.FileFunction,Copper,L1,Top*%
%TF.FilePolarity,Positive*%
%FSLAX46Y46*%
G04 Gerber Fmt 4.6, Leading zero omitted, Abs format (unit mm)*
G04 Created by KiCad (PCBNEW 8.0.6) date 2024-11-24 22:30:01*
%MOMM*%
%LPD*%
G01*
G04 APERTURE LIST*
%TA.AperFunction,ComponentPad*%
%ADD10R,2.400000X2.400000*%
%TD*%
%TA.AperFunction,ComponentPad*%
%ADD11O,2.400000X2.400000*%
%TD*%
%TA.AperFunction,ComponentPad*%
%ADD12R,2.600000X2.600000*%
%TD*%
%TA.AperFunction,ComponentPad*%
%ADD13O,2.600000X2.600000*%
%TD*%
%TA.AperFunction,ComponentPad*%
%ADD14O,2.200000X2.200000*%
%TD*%
%TA.AperFunction,ComponentPad*%
%ADD15R,2.200000X2.200000*%
%TD*%
%TA.AperFunction,ComponentPad*%
%ADD16C,1.400000*%
%TD*%
%TA.AperFunction,ComponentPad*%
%ADD17O,1.400000X1.400000*%
%TD*%
%TA.AperFunction,ComponentPad*%
%ADD18R,3.000000X3.000000*%
%TD*%
%TA.AperFunction,ComponentPad*%
%ADD19C,3.000000*%
%TD*%
%TA.AperFunction,Conductor*%
%ADD20C,0.200000*%
%TD*%
G04 APERTURE END LIST*
D10*
%TO.P,C1,1*%
%TO.N,Net-(D1-K)*%
X125500000Y-79000000D03*
D11*
%TO.P,C1,2*%
%TO.N,Net-(D3-A)*%
X125500000Y-104000000D03*
%TD*%
D12*
%TO.P,D5,1,K*%
%TO.N,Net-(D5-K)*%
X137000000Y-88500000D03*
D13*
%TO.P,D5,2,A*%
%TO.N,Net-(D3-A)*%
X137000000Y-103740000D03*
%TD*%
D14*
%TO.P,D1,2,A*%
%TO.N,/Vs*%
X105500000Y-88160000D03*
D15*
%TO.P,D1,1,K*%
%TO.N,Net-(D1-K)*%
X105500000Y-78000000D03*
%TD*%
D16*
%TO.P,R1,1*%
%TO.N,Net-(D1-K)*%
X137000000Y-78000000D03*
D17*
%TO.P,R1,2*%
%TO.N,Net-(D5-K)*%
X137000000Y-83080000D03*
%TD*%
D15*
%TO.P,D3,1,K*%
%TO.N,/Vs*%
X105500000Y-93840000D03*
D14*
%TO.P,D3,2,A*%
%TO.N,Net-(D3-A)*%
X105500000Y-104000000D03*
%TD*%
D15*
%TO.P,D2,1,K*%
%TO.N,Net-(D1-K)*%
X115000000Y-78000000D03*
D14*
%TO.P,D2,2,A*%
%TO.N,/gnd*%
X115000000Y-88160000D03*
%TD*%
D18*
%TO.P,J2,1,Pin_1*%
%TO.N,Net-(D5-K)*%
X148500000Y-85920000D03*
D19*
%TO.P,J2,2,Pin_2*%
%TO.N,Net-(D3-A)*%
X148500000Y-91000000D03*
%TD*%
D18*
%TO.P,J1,1,Pin_1*%
%TO.N,/Vs*%
X95500000Y-85920000D03*
D19*
%TO.P,J1,2,Pin_2*%
%TO.N,/gnd*%
X95500000Y-91000000D03*
%TD*%
D15*
%TO.P,D4,1,K*%
%TO.N,/gnd*%
X115000000Y-93920000D03*
D14*
%TO.P,D4,2,A*%
%TO.N,Net-(D3-A)*%
X115000000Y-104080000D03*
%TD*%
D20*
%TO.N,Net-(D3-A)*%
X137000000Y-103740000D02*
X148500000Y-92240000D01*
X148500000Y-92240000D02*
X148500000Y-91000000D01*
%TO.N,Net-(D5-K)*%
X145920000Y-88500000D02*
X148500000Y-85920000D01*
X137000000Y-88500000D02*
X145920000Y-88500000D01*
%TO.N,/Vs*%
X103260000Y-85920000D02*
X105500000Y-88160000D01*
X95500000Y-85920000D02*
X103260000Y-85920000D01*
%TD*%
%TA.AperFunction,Conductor*%
%TO.N,/gnd*%
G36*
X154442539Y-76020185D02*
G01*
X154488294Y-76072989D01*
X154499500Y-76124500D01*
X154499500Y-105875500D01*
X154479815Y-105942539D01*
X154427011Y-105988294D01*
X154375500Y-105999500D01*
X91624500Y-105999500D01*
X91557461Y-105979815D01*
X91511706Y-105927011D01*
X91500500Y-105875500D01*
X91500500Y-104000000D01*
X103894551Y-104000000D01*
X103914317Y-104251151D01*
X103973126Y-104496110D01*
X104069533Y-104728859D01*
X104201160Y-104943653D01*
X104201161Y-104943656D01*
X104201164Y-104943659D01*
X104364776Y-105135224D01*
X104458443Y-105215223D01*
X104556343Y-105298838D01*
X104556346Y-105298839D01*
X104771140Y-105430466D01*
X104939690Y-105500281D01*
X105003889Y-105526873D01*
X105248852Y-105585683D01*
X105500000Y-105605449D01*
X105751148Y-105585683D01*
X105996111Y-105526873D01*
X106228859Y-105430466D01*
X106443659Y-105298836D01*
X106635224Y-105135224D01*
X106798836Y-104943659D01*
X106930466Y-104728859D01*
X107026873Y-104496111D01*
X107085683Y-104251148D01*
X107099153Y-104080000D01*
X113394551Y-104080000D01*
X113414317Y-104331151D01*
X113473126Y-104576110D01*
X113569533Y-104808859D01*
X113701160Y-105023653D01*
X113701161Y-105023656D01*
X113701164Y-105023659D01*
X113864776Y-105215224D01*
X114002944Y-105333231D01*
X114056343Y-105378838D01*
X114056346Y-105378839D01*
X114271140Y-105510466D01*
X114456845Y-105587387D01*
X114503889Y-105606873D01*
X114748852Y-105665683D01*
X115000000Y-105685449D01*
X115251148Y-105665683D01*
X115496111Y-105606873D01*
X115728859Y-105510466D01*
X115943659Y-105378836D01*
X116135224Y-105215224D01*
X116298836Y-105023659D01*
X116430466Y-104808859D01*
X116526873Y-104576111D01*
X116585683Y-104331148D01*
X116605449Y-104080000D01*
X116599152Y-103999995D01*
X123794732Y-103999995D01*
X123794732Y-104000004D01*
X123813777Y-104254154D01*
X123831350Y-104331148D01*
X123870492Y-104502637D01*
X123963607Y-104739888D01*
X124091041Y-104960612D01*
X124249950Y-105159877D01*
X124436783Y-105333232D01*
X124647366Y-105476805D01*
X124647371Y-105476807D01*
X124647372Y-105476808D01*
X124647373Y-105476809D01*
X124751333Y-105526873D01*
X124876992Y-105587387D01*
X124876993Y-105587387D01*
X124876996Y-105587389D01*
X125120542Y-105662513D01*
X125372565Y-105700500D01*
X125627435Y-105700500D01*
X125879458Y-105662513D01*
X126123004Y-105587389D01*
X126352634Y-105476805D01*
X126563217Y-105333232D01*
X126750050Y-105159877D01*
X126908959Y-104960612D01*
X127036393Y-104739888D01*
X127129508Y-104502637D01*
X127186222Y-104254157D01*
X127205268Y-104000000D01*
X127186222Y-103745843D01*
X127184887Y-103739995D01*
X135194451Y-103739995D01*
X135194451Y-103740004D01*
X135214616Y-104009101D01*
X135274664Y-104272188D01*
X135274666Y-104272195D01*
X135362547Y-104496111D01*
X135373257Y-104523398D01*
X135508185Y-104757102D01*
X135644080Y-104927509D01*
X135676442Y-104968089D01*
X135856571Y-105135223D01*
X135874259Y-105151635D01*
X136097226Y-105303651D01*
X136340359Y-105420738D01*
X136598228Y-105500280D01*
X136598229Y-105500280D01*
X136598232Y-105500281D01*
X136865063Y-105540499D01*
X136865068Y-105540499D01*
X136865071Y-105540500D01*
X136865072Y-105540500D01*
X137134928Y-105540500D01*
X137134929Y-105540500D01*
X137134936Y-105540499D01*
X137401767Y-105500281D01*
X137401768Y-105500280D01*
X137401772Y-105500280D01*
X137659641Y-105420738D01*
X137902775Y-105303651D01*
X138125741Y-105151635D01*
X138323561Y-104968085D01*
X138491815Y-104757102D01*
X138626743Y-104523398D01*
X138725334Y-104272195D01*
X138785383Y-104009103D01*
X138805549Y-103740000D01*
X138785383Y-103470897D01*
X138725334Y-103207805D01*
X138658063Y-103036405D01*
X138651895Y-102966809D01*
X138684333Y-102904925D01*
X138685751Y-102903482D01*
X148557364Y-93031869D01*
X148618685Y-92998386D01*
X148636188Y-92995869D01*
X148785428Y-92985196D01*
X149065046Y-92924369D01*
X149333161Y-92824367D01*
X149584315Y-92687226D01*
X149813395Y-92515739D01*
X150015739Y-92313395D01*
X150187226Y-92084315D01*
X150324367Y-91833161D01*
X150424369Y-91565046D01*
X150485196Y-91285428D01*
X150505610Y-91000000D01*
X150485196Y-90714572D01*
X150424369Y-90434954D01*
X150324367Y-90166839D01*
X150256382Y-90042335D01*
X150187229Y-89915690D01*
X150187224Y-89915682D01*
X150015745Y-89686612D01*
X150015729Y-89686594D01*
X149813405Y-89484270D01*
X149813387Y-89484254D01*
X149584317Y-89312775D01*
X149584309Y-89312770D01*
X149333166Y-89175635D01*
X149333167Y-89175635D01*
X149225915Y-89135632D01*
X149065046Y-89075631D01*
X149065043Y-89075630D01*
X149065037Y-89075628D01*
X148785433Y-89014804D01*
X148500001Y-88994390D01*
X148499999Y-88994390D01*
X148214566Y-89014804D01*
X147934962Y-89075628D01*
X147666833Y-89175635D01*
X147415690Y-89312770D01*
X147415682Y-89312775D01*
X147186612Y-89484254D01*
X147186594Y-89484270D01*
X146984270Y-89686594D01*
X146984254Y-89686612D01*
X146812775Y-89915682D01*
X146812770Y-89915690D01*
X146675635Y-90166833D01*
X146575628Y-90434962D01*
X146514804Y-90714566D01*
X146494390Y-90999998D01*
X146494390Y-91000001D01*
X146514804Y-91285433D01*
X146575628Y-91565037D01*
X146575630Y-91565043D01*
X146575631Y-91565046D01*
X146637452Y-91730793D01*
X146675635Y-91833166D01*
X146812770Y-92084309D01*
X146812775Y-92084317D01*
X146984254Y-92313387D01*
X146984270Y-92313405D01*
X147186597Y-92515732D01*
X147186897Y-92515992D01*
X147186968Y-92516103D01*
X147189736Y-92518871D01*
X147189134Y-92519472D01*
X147224672Y-92574770D01*
X147224673Y-92644639D01*
X147193376Y-92697387D01*
X137837852Y-102052911D01*
X137776529Y-102086396D01*
X137706837Y-102081412D01*
X137696383Y-102076956D01*
X137659641Y-102059262D01*
X137639052Y-102052911D01*
X137401773Y-101979720D01*
X137401767Y-101979718D01*
X137134936Y-101939500D01*
X137134929Y-101939500D01*
X136865071Y-101939500D01*
X136865063Y-101939500D01*
X136598232Y-101979718D01*
X136598226Y-101979720D01*
X136340358Y-102059262D01*
X136097230Y-102176346D01*
X135874258Y-102328365D01*
X135676442Y-102511910D01*
X135508185Y-102722898D01*
X135373258Y-102956599D01*
X135373256Y-102956603D01*
X135274666Y-103207804D01*
X135274664Y-103207811D01*
X135214616Y-103470898D01*
X135194451Y-103739995D01*
X127184887Y-103739995D01*
X127129508Y-103497363D01*
X127036393Y-103260112D01*
X126908959Y-103039388D01*
X126750050Y-102840123D01*
X126563217Y-102666768D01*
X126352634Y-102523195D01*
X126352630Y-102523193D01*
X126352627Y-102523191D01*
X126352626Y-102523190D01*
X126123006Y-102412612D01*
X126123008Y-102412612D01*
X125879466Y-102337489D01*
X125879462Y-102337488D01*
X125879458Y-102337487D01*
X125758231Y-102319214D01*
X125627440Y-102299500D01*
X125627435Y-102299500D01*
X125372565Y-102299500D01*
X125372559Y-102299500D01*
X125215609Y-102323157D01*
X125120542Y-102337487D01*
X125120539Y-102337488D01*
X125120533Y-102337489D01*
X124876992Y-102412612D01*
X124647373Y-102523190D01*
X124647372Y-102523191D01*
X124436782Y-102666768D01*
X124249952Y-102840121D01*
X124249950Y-102840123D01*
X124091041Y-103039388D01*
X123963608Y-103260109D01*
X123870492Y-103497362D01*
X123870490Y-103497369D01*
X123813777Y-103745845D01*
X123794732Y-103999995D01*
X116599152Y-103999995D01*
X116585683Y-103828852D01*
X116526873Y-103583889D01*
X116493736Y-103503889D01*
X116430466Y-103351140D01*
X116298839Y-103136346D01*
X116298838Y-103136343D01*
X116230511Y-103056343D01*
X116135224Y-102944776D01*
X116008571Y-102836604D01*
X115943656Y-102781161D01*
X115943653Y-102781160D01*
X115728859Y-102649533D01*
X115496110Y-102553126D01*
X115251151Y-102494317D01*
X115000000Y-102474551D01*
X114748848Y-102494317D01*
X114503889Y-102553126D01*
X114271140Y-102649533D01*
X114056346Y-102781160D01*
X114056343Y-102781161D01*
X113864776Y-102944776D01*
X113701161Y-103136343D01*
X113701160Y-103136346D01*
X113569533Y-103351140D01*
X113473126Y-103583889D01*
X113414317Y-103828848D01*
X113394551Y-104080000D01*
X107099153Y-104080000D01*
X107105449Y-104000000D01*
X107085683Y-103748852D01*
X107026873Y-103503889D01*
X106930466Y-103271141D01*
X106930466Y-103271140D01*
X106798839Y-103056346D01*
X106798838Y-103056343D01*
X106722368Y-102966809D01*
X106635224Y-102864776D01*
X106508571Y-102756604D01*
X106443656Y-102701161D01*
X106443653Y-102701160D01*
X106228859Y-102569533D01*
X105996110Y-102473126D01*
X105751151Y-102414317D01*
X105500000Y-102394551D01*
X105248848Y-102414317D01*
X105003889Y-102473126D01*
X104771140Y-102569533D01*
X104556346Y-102701160D01*
X104556343Y-102701161D01*
X104364776Y-102864776D01*
X104201161Y-103056343D01*
X104201160Y-103056346D01*
X104069533Y-103271140D01*
X103973126Y-103503889D01*
X103914317Y-103748848D01*
X103894551Y-104000000D01*
X91500500Y-104000000D01*
X91500500Y-90999998D01*
X93494891Y-90999998D01*
X93494891Y-91000001D01*
X93515300Y-91285362D01*
X93576109Y-91564895D01*
X93676091Y-91832958D01*
X93813191Y-92084038D01*
X93813196Y-92084046D01*
X93919882Y-92226561D01*
X93919883Y-92226562D01*
X94814767Y-91331677D01*
X94826497Y-91359995D01*
X94909670Y-91484472D01*
X95015528Y-91590330D01*
X95140005Y-91673503D01*
X95168320Y-91685231D01*
X94273436Y-92580115D01*
X94415960Y-92686807D01*
X94415961Y-92686808D01*
X94667042Y-92823908D01*
X94667041Y-92823908D01*
X94935104Y-92923890D01*
X95214637Y-92984699D01*
X95499999Y-93005109D01*
X95500001Y-93005109D01*
X95785362Y-92984699D01*
X96064895Y-92923890D01*
X96332958Y-92823908D01*
X96574282Y-92692135D01*
X103899500Y-92692135D01*
X103899500Y-94987870D01*
X103899501Y-94987876D01*
X103905908Y-95047483D01*
X103956202Y-95182328D01*
X103956206Y-95182335D01*
X104042452Y-95297544D01*
X104042455Y-95297547D01*
X104157664Y-95383793D01*
X104157671Y-95383797D01*
X104292517Y-95434091D01*
X104292516Y-95434091D01*
X104299444Y-95434835D01*
X104352127Y-95440500D01*
X106647872Y-95440499D01*
X106707483Y-95434091D01*
X106842331Y-95383796D01*
X106957546Y-95297546D01*
X107043796Y-95182331D01*
X107094091Y-95047483D01*
X107100500Y-94987873D01*
X107100499Y-92772155D01*
X113400000Y-92772155D01*
X113400000Y-93670000D01*
X114509252Y-93670000D01*
X114487482Y-93707708D01*
X114450000Y-93847591D01*
X114450000Y-93992409D01*
X114487482Y-94132292D01*
X114509252Y-94170000D01*
X113400000Y-94170000D01*
X113400000Y-95067844D01*
X113406401Y-95127372D01*
X113406403Y-95127379D01*
X113456645Y-95262086D01*
X113456649Y-95262093D01*
X113542809Y-95377187D01*
X113542812Y-95377190D01*
X113657906Y-95463350D01*
X113657913Y-95463354D01*
X113792620Y-95513596D01*
X113792627Y-95513598D01*
X113852155Y-95519999D01*
X113852172Y-95520000D01*
X114750000Y-95520000D01*
X114750000Y-94410747D01*
X114787708Y-94432518D01*
X114927591Y-94470000D01*
X115072409Y-94470000D01*
X115212292Y-94432518D01*
X115250000Y-94410747D01*
X115250000Y-95520000D01*
X116147828Y-95520000D01*
X116147844Y-95519999D01*
X116207372Y-95513598D01*
X116207379Y-95513596D01*
X116342086Y-95463354D01*
X116342093Y-95463350D01*
X116457187Y-95377190D01*
X116457190Y-95377187D01*
X116543350Y-95262093D01*
X116543354Y-95262086D01*
X116593596Y-95127379D01*
X116593598Y-95127372D01*
X116599999Y-95067844D01*
X116600000Y-95067827D01*
X116600000Y-94170000D01*
X115490748Y-94170000D01*
X115512518Y-94132292D01*
X115550000Y-93992409D01*
X115550000Y-93847591D01*
X115512518Y-93707708D01*
X115490748Y-93670000D01*
X116600000Y-93670000D01*
X116600000Y-92772172D01*
X116599999Y-92772155D01*
X116593598Y-92712627D01*
X116593596Y-92712620D01*
X116543354Y-92577913D01*
X116543350Y-92577906D01*
X116457190Y-92462812D01*
X116457187Y-92462809D01*
X116342093Y-92376649D01*
X116342086Y-92376645D01*
X116207379Y-92326403D01*
X116207372Y-92326401D01*
X116147844Y-92320000D01*
X115250000Y-92320000D01*
X115250000Y-93429252D01*
X115212292Y-93407482D01*
X115072409Y-93370000D01*
X114927591Y-93370000D01*
X114787708Y-93407482D01*
X114750000Y-93429252D01*
X114750000Y-92320000D01*
X113852155Y-92320000D01*
X113792627Y-92326401D01*
X113792620Y-92326403D01*
X113657913Y-92376645D01*
X113657906Y-92376649D01*
X113542812Y-92462809D01*
X113542809Y-92462812D01*
X113456649Y-92577906D01*
X113456645Y-92577913D01*
X113406403Y-92712620D01*
X113406401Y-92712627D01*
X113400000Y-92772155D01*
X107100499Y-92772155D01*
X107100499Y-92692128D01*
X107094091Y-92632517D01*
X107074546Y-92580115D01*
X107043797Y-92497671D01*
X107043793Y-92497664D01*
X106957547Y-92382455D01*
X106957544Y-92382452D01*
X106842335Y-92296206D01*
X106842328Y-92296202D01*
X106707482Y-92245908D01*
X106707483Y-92245908D01*
X106647883Y-92239501D01*
X106647881Y-92239500D01*
X106647873Y-92239500D01*
X106647864Y-92239500D01*
X104352129Y-92239500D01*
X104352123Y-92239501D01*
X104292516Y-92245908D01*
X104157671Y-92296202D01*
X104157664Y-92296206D01*
X104042455Y-92382452D01*
X104042452Y-92382455D01*
X103956206Y-92497664D01*
X103956202Y-92497671D01*
X103905908Y-92632517D01*
X103899501Y-92692116D01*
X103899501Y-92692123D01*
X103899500Y-92692135D01*
X96574282Y-92692135D01*
X96584047Y-92686803D01*
X96726561Y-92580116D01*
X96726562Y-92580115D01*
X95831679Y-91685231D01*
X95859995Y-91673503D01*
X95984472Y-91590330D01*
X96090330Y-91484472D01*
X96173503Y-91359995D01*
X96185231Y-91331678D01*
X97080115Y-92226562D01*
X97080116Y-92226561D01*
X97186803Y-92084047D01*
X97323908Y-91832958D01*
X97423890Y-91564895D01*
X97484699Y-91285362D01*
X97505109Y-91000001D01*
X97505109Y-90999998D01*
X97484699Y-90714637D01*
X97423890Y-90435104D01*
X97323908Y-90167041D01*
X97186808Y-89915961D01*
X97186807Y-89915960D01*
X97080115Y-89773436D01*
X96185231Y-90668320D01*
X96173503Y-90640005D01*
X96090330Y-90515528D01*
X95984472Y-90409670D01*
X95859995Y-90326497D01*
X95831678Y-90314767D01*
X96726562Y-89419883D01*
X96726561Y-89419882D01*
X96584046Y-89313196D01*
X96584038Y-89313191D01*
X96332957Y-89176091D01*
X96332958Y-89176091D01*
X96064895Y-89076109D01*
X95785362Y-89015300D01*
X95500001Y-88994891D01*
X95499999Y-88994891D01*
X95214637Y-89015300D01*
X94935104Y-89076109D01*
X94667041Y-89176091D01*
X94415961Y-89313191D01*
X94415953Y-89313196D01*
X94273437Y-89419882D01*
X94273436Y-89419883D01*
X95168321Y-90314767D01*
X95140005Y-90326497D01*
X95015528Y-90409670D01*
X94909670Y-90515528D01*
X94826497Y-90640005D01*
X94814768Y-90668321D01*
X93919883Y-89773436D01*
X93919882Y-89773437D01*
X93813196Y-89915953D01*
X93813191Y-89915961D01*
X93676091Y-90167041D01*
X93576109Y-90435104D01*
X93515300Y-90714637D01*
X93494891Y-90999998D01*
X91500500Y-90999998D01*
X91500500Y-84372135D01*
X93499500Y-84372135D01*
X93499500Y-87467870D01*
X93499501Y-87467876D01*
X93505908Y-87527483D01*
X93556202Y-87662328D01*
X93556206Y-87662335D01*
X93642452Y-87777544D01*
X93642455Y-87777547D01*
X93757664Y-87863793D01*
X93757671Y-87863797D01*
X93892517Y-87914091D01*
X93892516Y-87914091D01*
X93899444Y-87914835D01*
X93952127Y-87920500D01*
X97047872Y-87920499D01*
X97107483Y-87914091D01*
X97242331Y-87863796D01*
X97357546Y-87777546D01*
X97443796Y-87662331D01*
X97494091Y-87527483D01*
X97500500Y-87467873D01*
X97500500Y-86644500D01*
X97520185Y-86577461D01*
X97572989Y-86531706D01*
X97624500Y-86520500D01*
X102959903Y-86520500D01*
X103026942Y-86540185D01*
X103047584Y-86556819D01*
X103967707Y-87476942D01*
X104001192Y-87538265D01*
X103996208Y-87607957D01*
X103994588Y-87612073D01*
X103973127Y-87663886D01*
X103973127Y-87663887D01*
X103914317Y-87908848D01*
X103894551Y-88160000D01*
X103914317Y-88411151D01*
X103973126Y-88656110D01*
X104069533Y-88888859D01*
X104201160Y-89103653D01*
X104201161Y-89103656D01*
X104247115Y-89157461D01*
X104364776Y-89295224D01*
X104510732Y-89419882D01*
X104556343Y-89458838D01*
X104556346Y-89458839D01*
X104771140Y-89590466D01*
X105002737Y-89686396D01*
X105003889Y-89686873D01*
X105248852Y-89745683D01*
X105500000Y-89765449D01*
X105751148Y-89745683D01*
X105996111Y-89686873D01*
X106228859Y-89590466D01*
X106443659Y-89458836D01*
X106635224Y-89295224D01*
X106798836Y-89103659D01*
X106930466Y-88888859D01*
X107026873Y-88656111D01*
X107085683Y-88411148D01*
X107105449Y-88160000D01*
X107085773Y-87909999D01*
X113414728Y-87909999D01*
X113414729Y-87910000D01*
X114509252Y-87910000D01*
X114487482Y-87947708D01*
X114450000Y-88087591D01*
X114450000Y-88232409D01*
X114487482Y-88372292D01*
X114509252Y-88410000D01*
X113414728Y-88410000D01*
X113414811Y-88411067D01*
X113473603Y-88655956D01*
X113569980Y-88888631D01*
X113701568Y-89103362D01*
X113701571Y-89103367D01*
X113865130Y-89294869D01*
X114056632Y-89458428D01*
X114056637Y-89458431D01*
X114271368Y-89590019D01*
X114504043Y-89686396D01*
X114748932Y-89745188D01*
X114749999Y-89745271D01*
X114750000Y-89745271D01*
X114750000Y-88650747D01*
X114787708Y-88672518D01*
X114927591Y-88710000D01*
X115072409Y-88710000D01*
X115212292Y-88672518D01*
X115250000Y-88650747D01*
X115250000Y-89745271D01*
X115251067Y-89745188D01*
X115495956Y-89686396D01*
X115728631Y-89590019D01*
X115943362Y-89458431D01*
X115943367Y-89458428D01*
X116134869Y-89294869D01*
X116298428Y-89103367D01*
X116298431Y-89103362D01*
X116430019Y-88888631D01*
X116526396Y-88655956D01*
X116585188Y-88411067D01*
X116585272Y-88410000D01*
X115490748Y-88410000D01*
X115512518Y-88372292D01*
X115550000Y-88232409D01*
X115550000Y-88087591D01*
X115512518Y-87947708D01*
X115490748Y-87910000D01*
X116585271Y-87910000D01*
X116585271Y-87909999D01*
X116585188Y-87908932D01*
X116526396Y-87664043D01*
X116430019Y-87431368D01*
X116298431Y-87216637D01*
X116298428Y-87216632D01*
X116243342Y-87152135D01*
X135199500Y-87152135D01*
X135199500Y-89847870D01*
X135199501Y-89847876D01*
X135205908Y-89907483D01*
X135256202Y-90042328D01*
X135256206Y-90042335D01*
X135342452Y-90157544D01*
X135342455Y-90157547D01*
X135457664Y-90243793D01*
X135457671Y-90243797D01*
X135592517Y-90294091D01*
X135592516Y-90294091D01*
X135599444Y-90294835D01*
X135652127Y-90300500D01*
X138347872Y-90300499D01*
X138407483Y-90294091D01*
X138542331Y-90243796D01*
X138657546Y-90157546D01*
X138743796Y-90042331D01*
X138794091Y-89907483D01*
X138800500Y-89847873D01*
X138800500Y-89224500D01*
X138820185Y-89157461D01*
X138872989Y-89111706D01*
X138924500Y-89100500D01*
X145833331Y-89100500D01*
X145833347Y-89100501D01*
X145840943Y-89100501D01*
X145999054Y-89100501D01*
X145999057Y-89100501D01*
X146151785Y-89059577D01*
X146201904Y-89030639D01*
X146288716Y-88980520D01*
X146400520Y-88868716D01*
X146400520Y-88868714D01*
X146410728Y-88858507D01*
X146410730Y-88858504D01*
X147312416Y-87956818D01*
X147373739Y-87923333D01*
X147400097Y-87920499D01*
X150047871Y-87920499D01*
X150047872Y-87920499D01*
X150107483Y-87914091D01*
X150242331Y-87863796D01*
X150357546Y-87777546D01*
X150443796Y-87662331D01*
X150494091Y-87527483D01*
X150500500Y-87467873D01*
X150500499Y-84372128D01*
X150494091Y-84312517D01*
X150482149Y-84280500D01*
X150443797Y-84177671D01*
X150443793Y-84177664D01*
X150357547Y-84062455D01*
X150357544Y-84062452D01*
X150242335Y-83976206D01*
X150242328Y-83976202D01*
X150107482Y-83925908D01*
X150107483Y-83925908D01*
X150047883Y-83919501D01*
X150047881Y-83919500D01*
X150047873Y-83919500D01*
X150047864Y-83919500D01*
X146952129Y-83919500D01*
X146952123Y-83919501D01*
X146892516Y-83925908D01*
X146757671Y-83976202D01*
X146757664Y-83976206D01*
X146642455Y-84062452D01*
X146642452Y-84062455D01*
X146556206Y-84177664D01*
X146556202Y-84177671D01*
X146505908Y-84312517D01*
X146499501Y-84372116D01*
X146499501Y-84372123D01*
X146499500Y-84372135D01*
X146499500Y-87019902D01*
X146479815Y-87086941D01*
X146463181Y-87107583D01*
X145707584Y-87863181D01*
X145646261Y-87896666D01*
X145619903Y-87899500D01*
X138924499Y-87899500D01*
X138857460Y-87879815D01*
X138811705Y-87827011D01*
X138800499Y-87775500D01*
X138800499Y-87152129D01*
X138800498Y-87152123D01*
X138800497Y-87152116D01*
X138794091Y-87092517D01*
X138792011Y-87086941D01*
X138743797Y-86957671D01*
X138743793Y-86957664D01*
X138657547Y-86842455D01*
X138657544Y-86842452D01*
X138542335Y-86756206D01*
X138542328Y-86756202D01*
X138407482Y-86705908D01*
X138407483Y-86705908D01*
X138347883Y-86699501D01*
X138347881Y-86699500D01*
X138347873Y-86699500D01*
X138347864Y-86699500D01*
X135652129Y-86699500D01*
X135652123Y-86699501D01*
X135592516Y-86705908D01*
X135457671Y-86756202D01*
X135457664Y-86756206D01*
X135342455Y-86842452D01*
X135342452Y-86842455D01*
X135256206Y-86957664D01*
X135256202Y-86957671D01*
X135205908Y-87092517D01*
X135199501Y-87152116D01*
X135199501Y-87152123D01*
X135199500Y-87152135D01*
X116243342Y-87152135D01*
X116134869Y-87025130D01*
X115943367Y-86861571D01*
X115943362Y-86861568D01*
X115728631Y-86729980D01*
X115495956Y-86633603D01*
X115251064Y-86574811D01*
X115250000Y-86574726D01*
X115250000Y-87669252D01*
X115212292Y-87647482D01*
X115072409Y-87610000D01*
X114927591Y-87610000D01*
X114787708Y-87647482D01*
X114750000Y-87669252D01*
X114750000Y-86574726D01*
X114748935Y-86574811D01*
X114504043Y-86633603D01*
X114271368Y-86729980D01*
X114056637Y-86861568D01*
X114056632Y-86861571D01*
X113865130Y-87025130D01*
X113701571Y-87216632D01*
X113701568Y-87216637D01*
X113569980Y-87431368D01*
X113473603Y-87664043D01*
X113414811Y-87908932D01*
X113414728Y-87909999D01*
X107085773Y-87909999D01*
X107085683Y-87908852D01*
X107026873Y-87663889D01*
X106970372Y-87527482D01*
X106930466Y-87431140D01*
X106798839Y-87216346D01*
X106798838Y-87216343D01*
X106743992Y-87152127D01*
X106635224Y-87024776D01*
X106444136Y-86861571D01*
X106443656Y-86861161D01*
X106443653Y-86861160D01*
X106228859Y-86729533D01*
X105996110Y-86633126D01*
X105751151Y-86574317D01*
X105500000Y-86554551D01*
X105248848Y-86574317D01*
X105003887Y-86633127D01*
X105003886Y-86633127D01*
X104952073Y-86654588D01*
X104882604Y-86662055D01*
X104820125Y-86630779D01*
X104816942Y-86627707D01*
X103747590Y-85558355D01*
X103747588Y-85558352D01*
X103628717Y-85439481D01*
X103628716Y-85439480D01*
X103541904Y-85389360D01*
X103541904Y-85389359D01*
X103541900Y-85389358D01*
X103491785Y-85360423D01*
X103339057Y-85319499D01*
X103180943Y-85319499D01*
X103173347Y-85319499D01*
X103173331Y-85319500D01*
X97624499Y-85319500D01*
X97557460Y-85299815D01*
X97511705Y-85247011D01*
X97500499Y-85195500D01*
X97500499Y-84372129D01*
X97500498Y-84372123D01*
X97500497Y-84372116D01*
X97494091Y-84312517D01*
X97482149Y-84280500D01*
X97443797Y-84177671D01*
X97443793Y-84177664D01*
X97357547Y-84062455D01*
X97357544Y-84062452D01*
X97242335Y-83976206D01*
X97242328Y-83976202D01*
X97107482Y-83925908D01*
X97107483Y-83925908D01*
X97047883Y-83919501D01*
X97047881Y-83919500D01*
X97047873Y-83919500D01*
X97047864Y-83919500D01*
X93952129Y-83919500D01*
X93952123Y-83919501D01*
X93892516Y-83925908D01*
X93757671Y-83976202D01*
X93757664Y-83976206D01*
X93642455Y-84062452D01*
X93642452Y-84062455D01*
X93556206Y-84177664D01*
X93556202Y-84177671D01*
X93505908Y-84312517D01*
X93499501Y-84372116D01*
X93499501Y-84372123D01*
X93499500Y-84372135D01*
X91500500Y-84372135D01*
X91500500Y-83079999D01*
X135794357Y-83079999D01*
X135794357Y-83080000D01*
X135814884Y-83301535D01*
X135814885Y-83301537D01*
X135875769Y-83515523D01*
X135875775Y-83515538D01*
X135974938Y-83714683D01*
X135974943Y-83714691D01*
X136109020Y-83892238D01*
X136273437Y-84042123D01*
X136273439Y-84042125D01*
X136462595Y-84159245D01*
X136462596Y-84159245D01*
X136462599Y-84159247D01*
X136670060Y-84239618D01*
X136888757Y-84280500D01*
X136888759Y-84280500D01*
X137111241Y-84280500D01*
X137111243Y-84280500D01*
X137329940Y-84239618D01*
X137537401Y-84159247D01*
X137726562Y-84042124D01*
X137890981Y-83892236D01*
X138025058Y-83714689D01*
X138124229Y-83515528D01*
X138185115Y-83301536D01*
X138205643Y-83080000D01*
X138185115Y-82858464D01*
X138124229Y-82644472D01*
X138124224Y-82644461D01*
X138025061Y-82445316D01*
X138025056Y-82445308D01*
X137890979Y-82267761D01*
X137726562Y-82117876D01*
X137726560Y-82117874D01*
X137537404Y-82000754D01*
X137537398Y-82000752D01*
X137329940Y-81920382D01*
X137111243Y-81879500D01*
X136888757Y-81879500D01*
X136670060Y-81920382D01*
X136538864Y-81971207D01*
X136462601Y-82000752D01*
X136462595Y-82000754D01*
X136273439Y-82117874D01*
X136273437Y-82117876D01*
X136109020Y-82267761D01*
X135974943Y-82445308D01*
X135974938Y-82445316D01*
X135875775Y-82644461D01*
X135875769Y-82644476D01*
X135814885Y-82858462D01*
X135814884Y-82858464D01*
X135794357Y-83079999D01*
X91500500Y-83079999D01*
X91500500Y-76852135D01*
X103899500Y-76852135D01*
X103899500Y-79147870D01*
X103899501Y-79147876D01*
X103905908Y-79207483D01*
X103956202Y-79342328D01*
X103956206Y-79342335D01*
X104042452Y-79457544D01*
X104042455Y-79457547D01*
X104157664Y-79543793D01*
X104157671Y-79543797D01*
X104292517Y-79594091D01*
X104292516Y-79594091D01*
X104299444Y-79594835D01*
X104352127Y-79600500D01*
X106647872Y-79600499D01*
X106707483Y-79594091D01*
X106842331Y-79543796D01*
X106957546Y-79457546D01*
X107043796Y-79342331D01*
X107094091Y-79207483D01*
X107100500Y-79147873D01*
X107100499Y-76852135D01*
X113399500Y-76852135D01*
X113399500Y-79147870D01*
X113399501Y-79147876D01*
X113405908Y-79207483D01*
X113456202Y-79342328D01*
X113456206Y-79342335D01*
X113542452Y-79457544D01*
X113542455Y-79457547D01*
X113657664Y-79543793D01*
X113657671Y-79543797D01*
X113792517Y-79594091D01*
X113792516Y-79594091D01*
X113799444Y-79594835D01*
X113852127Y-79600500D01*
X116147872Y-79600499D01*
X116207483Y-79594091D01*
X116342331Y-79543796D01*
X116457546Y-79457546D01*
X116543796Y-79342331D01*
X116594091Y-79207483D01*
X116600500Y-79147873D01*
X116600499Y-77752135D01*
X123799500Y-77752135D01*
X123799500Y-80247870D01*
X123799501Y-80247876D01*
X123805908Y-80307483D01*
X123856202Y-80442328D01*
X123856206Y-80442335D01*
X123942452Y-80557544D01*
X123942455Y-80557547D01*
X124057664Y-80643793D01*
X124057671Y-80643797D01*
X124192517Y-80694091D01*
X124192516Y-80694091D01*
X124199444Y-80694835D01*
X124252127Y-80700500D01*
X126747872Y-80700499D01*
X126807483Y-80694091D01*
X126942331Y-80643796D01*
X127057546Y-80557546D01*
X127143796Y-80442331D01*
X127194091Y-80307483D01*
X127200500Y-80247873D01*
X127200499Y-77999999D01*
X135794357Y-77999999D01*
X135794357Y-78000000D01*
X135814884Y-78221535D01*
X135814885Y-78221537D01*
X135875769Y-78435523D01*
X135875775Y-78435538D01*
X135974938Y-78634683D01*
X135974943Y-78634691D01*
X136109020Y-78812238D01*
X136273437Y-78962123D01*
X136273439Y-78962125D01*
X136462595Y-79079245D01*
X136462596Y-79079245D01*
X136462599Y-79079247D01*
X136670060Y-79159618D01*
X136888757Y-79200500D01*
X136888759Y-79200500D01*
X137111241Y-79200500D01*
X137111243Y-79200500D01*
X137329940Y-79159618D01*
X137537401Y-79079247D01*
X137726562Y-78962124D01*
X137890981Y-78812236D01*
X138025058Y-78634689D01*
X138124229Y-78435528D01*
X138185115Y-78221536D01*
X138205643Y-78000000D01*
X138185115Y-77778464D01*
X138124229Y-77564472D01*
X138124224Y-77564461D01*
X138025061Y-77365316D01*
X138025056Y-77365308D01*
X137890979Y-77187761D01*
X137726562Y-77037876D01*
X137726560Y-77037874D01*
X137537404Y-76920754D01*
X137537398Y-76920752D01*
X137329940Y-76840382D01*
X137111243Y-76799500D01*
X136888757Y-76799500D01*
X136670060Y-76840382D01*
X136538864Y-76891207D01*
X136462601Y-76920752D01*
X136462595Y-76920754D01*
X136273439Y-77037874D01*
X136273437Y-77037876D01*
X136109020Y-77187761D01*
X135974943Y-77365308D01*
X135974938Y-77365316D01*
X135875775Y-77564461D01*
X135875769Y-77564476D01*
X135814885Y-77778462D01*
X135814884Y-77778464D01*
X135794357Y-77999999D01*
X127200499Y-77999999D01*
X127200499Y-77752128D01*
X127194091Y-77692517D01*
X127146333Y-77564472D01*
X127143797Y-77557671D01*
X127143793Y-77557664D01*
X127057547Y-77442455D01*
X127057544Y-77442452D01*
X126942335Y-77356206D01*
X126942328Y-77356202D01*
X126807482Y-77305908D01*
X126807483Y-77305908D01*
X126747883Y-77299501D01*
X126747881Y-77299500D01*
X126747873Y-77299500D01*
X126747864Y-77299500D01*
X124252129Y-77299500D01*
X124252123Y-77299501D01*
X124192516Y-77305908D01*
X124057671Y-77356202D01*
X124057664Y-77356206D01*
X123942455Y-77442452D01*
X123942452Y-77442455D01*
X123856206Y-77557664D01*
X123856202Y-77557671D01*
X123805908Y-77692517D01*
X123799501Y-77752116D01*
X123799501Y-77752123D01*
X123799500Y-77752135D01*
X116600499Y-77752135D01*
X116600499Y-76852128D01*
X116594091Y-76792517D01*
X116543796Y-76657669D01*
X116543795Y-76657668D01*
X116543793Y-76657664D01*
X116457547Y-76542455D01*
X116457544Y-76542452D01*
X116342335Y-76456206D01*
X116342328Y-76456202D01*
X116207482Y-76405908D01*
X116207483Y-76405908D01*
X116147883Y-76399501D01*
X116147881Y-76399500D01*
X116147873Y-76399500D01*
X116147864Y-76399500D01*
X113852129Y-76399500D01*
X113852123Y-76399501D01*
X113792516Y-76405908D01*
X113657671Y-76456202D01*
X113657664Y-76456206D01*
X113542455Y-76542452D01*
X113542452Y-76542455D01*
X113456206Y-76657664D01*
X113456202Y-76657671D01*
X113405908Y-76792517D01*
X113399501Y-76852116D01*
X113399501Y-76852123D01*
X113399500Y-76852135D01*
X107100499Y-76852135D01*
X107100499Y-76852128D01*
X107094091Y-76792517D01*
X107043796Y-76657669D01*
X107043795Y-76657668D01*
X107043793Y-76657664D01*
X106957547Y-76542455D01*
X106957544Y-76542452D01*
X106842335Y-76456206D01*
X106842328Y-76456202D01*
X106707482Y-76405908D01*
X106707483Y-76405908D01*
X106647883Y-76399501D01*
X106647881Y-76399500D01*
X106647873Y-76399500D01*
X106647864Y-76399500D01*
X104352129Y-76399500D01*
X104352123Y-76399501D01*
X104292516Y-76405908D01*
X104157671Y-76456202D01*
X104157664Y-76456206D01*
X104042455Y-76542452D01*
X104042452Y-76542455D01*
X103956206Y-76657664D01*
X103956202Y-76657671D01*
X103905908Y-76792517D01*
X103899501Y-76852116D01*
X103899501Y-76852123D01*
X103899500Y-76852135D01*
X91500500Y-76852135D01*
X91500500Y-76124500D01*
X91520185Y-76057461D01*
X91572989Y-76011706D01*
X91624500Y-76000500D01*
X154375500Y-76000500D01*
X154442539Y-76020185D01*
G37*
%TD.AperFunction*%
%TD*%
M02*
