G04 #@! TF.GenerationSoftware,KiCad,Pcbnew,8.0.6*
G04 #@! TF.CreationDate,2025-09-25T22:41:13-06:00*
G04 #@! TF.ProjectId,CargadorWalkieTalkie,43617267-6164-46f7-9257-616c6b696554,0.0*
G04 #@! TF.SameCoordinates,Original*
G04 #@! TF.FileFunction,Legend,Bot*
G04 #@! TF.FilePolarity,Positive*
%FSLAX46Y46*%
G04 Gerber Fmt 4.6, Leading zero omitted, Abs format (unit mm)*
G04 Created by KiCad (PCBNEW 8.0.6) date 2025-09-25 22:41:13*
%MOMM*%
%LPD*%
G01*
G04 APERTURE LIST*
%ADD10C,0.100000*%
%ADD11C,1.600000*%
%ADD12O,1.600000X1.600000*%
%ADD13R,2.400000X2.400000*%
%ADD14O,2.400000X2.400000*%
%ADD15R,2.600000X2.600000*%
%ADD16O,2.600000X2.600000*%
%ADD17R,2.200000X2.200000*%
%ADD18O,2.200000X2.200000*%
%ADD19R,3.000000X3.000000*%
%ADD20C,3.000000*%
G04 APERTURE END LIST*
D10*
X119496115Y-99091466D02*
X118734211Y-99091466D01*
X117496115Y-99472419D02*
X117496115Y-98805752D01*
X117496115Y-98996228D02*
X117448496Y-98900990D01*
X117448496Y-98900990D02*
X117400877Y-98853371D01*
X117400877Y-98853371D02*
X117305639Y-98805752D01*
X117305639Y-98805752D02*
X117210401Y-98805752D01*
X116877067Y-99472419D02*
X116877067Y-98805752D01*
X116877067Y-98900990D02*
X116829448Y-98853371D01*
X116829448Y-98853371D02*
X116734210Y-98805752D01*
X116734210Y-98805752D02*
X116591353Y-98805752D01*
X116591353Y-98805752D02*
X116496115Y-98853371D01*
X116496115Y-98853371D02*
X116448496Y-98948609D01*
X116448496Y-98948609D02*
X116448496Y-99472419D01*
X116448496Y-98948609D02*
X116400877Y-98853371D01*
X116400877Y-98853371D02*
X116305639Y-98805752D01*
X116305639Y-98805752D02*
X116162782Y-98805752D01*
X116162782Y-98805752D02*
X116067543Y-98853371D01*
X116067543Y-98853371D02*
X116019924Y-98948609D01*
X116019924Y-98948609D02*
X116019924Y-99472419D01*
X115115163Y-99472419D02*
X115115163Y-98948609D01*
X115115163Y-98948609D02*
X115162782Y-98853371D01*
X115162782Y-98853371D02*
X115258020Y-98805752D01*
X115258020Y-98805752D02*
X115448496Y-98805752D01*
X115448496Y-98805752D02*
X115543734Y-98853371D01*
X115115163Y-99424800D02*
X115210401Y-99472419D01*
X115210401Y-99472419D02*
X115448496Y-99472419D01*
X115448496Y-99472419D02*
X115543734Y-99424800D01*
X115543734Y-99424800D02*
X115591353Y-99329561D01*
X115591353Y-99329561D02*
X115591353Y-99234323D01*
X115591353Y-99234323D02*
X115543734Y-99139085D01*
X115543734Y-99139085D02*
X115448496Y-99091466D01*
X115448496Y-99091466D02*
X115210401Y-99091466D01*
X115210401Y-99091466D02*
X115115163Y-99043847D01*
X114210401Y-99472419D02*
X114210401Y-98472419D01*
X114210401Y-99424800D02*
X114305639Y-99472419D01*
X114305639Y-99472419D02*
X114496115Y-99472419D01*
X114496115Y-99472419D02*
X114591353Y-99424800D01*
X114591353Y-99424800D02*
X114638972Y-99377180D01*
X114638972Y-99377180D02*
X114686591Y-99281942D01*
X114686591Y-99281942D02*
X114686591Y-98996228D01*
X114686591Y-98996228D02*
X114638972Y-98900990D01*
X114638972Y-98900990D02*
X114591353Y-98853371D01*
X114591353Y-98853371D02*
X114496115Y-98805752D01*
X114496115Y-98805752D02*
X114305639Y-98805752D01*
X114305639Y-98805752D02*
X114210401Y-98853371D01*
X113734210Y-99472419D02*
X113734210Y-98805752D01*
X113734210Y-98996228D02*
X113686591Y-98900990D01*
X113686591Y-98900990D02*
X113638972Y-98853371D01*
X113638972Y-98853371D02*
X113543734Y-98805752D01*
X113543734Y-98805752D02*
X113448496Y-98805752D01*
X113115162Y-99472419D02*
X113115162Y-98805752D01*
X113115162Y-98472419D02*
X113162781Y-98520038D01*
X113162781Y-98520038D02*
X113115162Y-98567657D01*
X113115162Y-98567657D02*
X113067543Y-98520038D01*
X113067543Y-98520038D02*
X113115162Y-98472419D01*
X113115162Y-98472419D02*
X113115162Y-98567657D01*
X112210401Y-98805752D02*
X112210401Y-99615276D01*
X112210401Y-99615276D02*
X112258020Y-99710514D01*
X112258020Y-99710514D02*
X112305639Y-99758133D01*
X112305639Y-99758133D02*
X112400877Y-99805752D01*
X112400877Y-99805752D02*
X112543734Y-99805752D01*
X112543734Y-99805752D02*
X112638972Y-99758133D01*
X112210401Y-99424800D02*
X112305639Y-99472419D01*
X112305639Y-99472419D02*
X112496115Y-99472419D01*
X112496115Y-99472419D02*
X112591353Y-99424800D01*
X112591353Y-99424800D02*
X112638972Y-99377180D01*
X112638972Y-99377180D02*
X112686591Y-99281942D01*
X112686591Y-99281942D02*
X112686591Y-98996228D01*
X112686591Y-98996228D02*
X112638972Y-98900990D01*
X112638972Y-98900990D02*
X112591353Y-98853371D01*
X112591353Y-98853371D02*
X112496115Y-98805752D01*
X112496115Y-98805752D02*
X112305639Y-98805752D01*
X112305639Y-98805752D02*
X112210401Y-98853371D01*
X111305639Y-99472419D02*
X111305639Y-98948609D01*
X111305639Y-98948609D02*
X111353258Y-98853371D01*
X111353258Y-98853371D02*
X111448496Y-98805752D01*
X111448496Y-98805752D02*
X111638972Y-98805752D01*
X111638972Y-98805752D02*
X111734210Y-98853371D01*
X111305639Y-99424800D02*
X111400877Y-99472419D01*
X111400877Y-99472419D02*
X111638972Y-99472419D01*
X111638972Y-99472419D02*
X111734210Y-99424800D01*
X111734210Y-99424800D02*
X111781829Y-99329561D01*
X111781829Y-99329561D02*
X111781829Y-99234323D01*
X111781829Y-99234323D02*
X111734210Y-99139085D01*
X111734210Y-99139085D02*
X111638972Y-99091466D01*
X111638972Y-99091466D02*
X111400877Y-99091466D01*
X111400877Y-99091466D02*
X111305639Y-99043847D01*
X110686591Y-99472419D02*
X110781829Y-99424800D01*
X110781829Y-99424800D02*
X110829448Y-99329561D01*
X110829448Y-99329561D02*
X110829448Y-98472419D01*
X110305638Y-99472419D02*
X110305638Y-98805752D01*
X110305638Y-98900990D02*
X110258019Y-98853371D01*
X110258019Y-98853371D02*
X110162781Y-98805752D01*
X110162781Y-98805752D02*
X110019924Y-98805752D01*
X110019924Y-98805752D02*
X109924686Y-98853371D01*
X109924686Y-98853371D02*
X109877067Y-98948609D01*
X109877067Y-98948609D02*
X109877067Y-99472419D01*
X109877067Y-98948609D02*
X109829448Y-98853371D01*
X109829448Y-98853371D02*
X109734210Y-98805752D01*
X109734210Y-98805752D02*
X109591353Y-98805752D01*
X109591353Y-98805752D02*
X109496114Y-98853371D01*
X109496114Y-98853371D02*
X109448495Y-98948609D01*
X109448495Y-98948609D02*
X109448495Y-99472419D01*
X108829448Y-99472419D02*
X108924686Y-99424800D01*
X108924686Y-99424800D02*
X108972305Y-99377180D01*
X108972305Y-99377180D02*
X109019924Y-99281942D01*
X109019924Y-99281942D02*
X109019924Y-98996228D01*
X109019924Y-98996228D02*
X108972305Y-98900990D01*
X108972305Y-98900990D02*
X108924686Y-98853371D01*
X108924686Y-98853371D02*
X108829448Y-98805752D01*
X108829448Y-98805752D02*
X108686591Y-98805752D01*
X108686591Y-98805752D02*
X108591353Y-98853371D01*
X108591353Y-98853371D02*
X108543734Y-98900990D01*
X108543734Y-98900990D02*
X108496115Y-98996228D01*
X108496115Y-98996228D02*
X108496115Y-99281942D01*
X108496115Y-99281942D02*
X108543734Y-99377180D01*
X108543734Y-99377180D02*
X108591353Y-99424800D01*
X108591353Y-99424800D02*
X108686591Y-99472419D01*
X108686591Y-99472419D02*
X108829448Y-99472419D01*
X108067543Y-98805752D02*
X108067543Y-99472419D01*
X108067543Y-98900990D02*
X108019924Y-98853371D01*
X108019924Y-98853371D02*
X107924686Y-98805752D01*
X107924686Y-98805752D02*
X107781829Y-98805752D01*
X107781829Y-98805752D02*
X107686591Y-98853371D01*
X107686591Y-98853371D02*
X107638972Y-98948609D01*
X107638972Y-98948609D02*
X107638972Y-99472419D01*
X107305638Y-98805752D02*
X106924686Y-98805752D01*
X107162781Y-98472419D02*
X107162781Y-99329561D01*
X107162781Y-99329561D02*
X107115162Y-99424800D01*
X107115162Y-99424800D02*
X107019924Y-99472419D01*
X107019924Y-99472419D02*
X106924686Y-99472419D01*
X106210400Y-99424800D02*
X106305638Y-99472419D01*
X106305638Y-99472419D02*
X106496114Y-99472419D01*
X106496114Y-99472419D02*
X106591352Y-99424800D01*
X106591352Y-99424800D02*
X106638971Y-99329561D01*
X106638971Y-99329561D02*
X106638971Y-98948609D01*
X106638971Y-98948609D02*
X106591352Y-98853371D01*
X106591352Y-98853371D02*
X106496114Y-98805752D01*
X106496114Y-98805752D02*
X106305638Y-98805752D01*
X106305638Y-98805752D02*
X106210400Y-98853371D01*
X106210400Y-98853371D02*
X106162781Y-98948609D01*
X106162781Y-98948609D02*
X106162781Y-99043847D01*
X106162781Y-99043847D02*
X106638971Y-99139085D01*
X105781828Y-99424800D02*
X105686590Y-99472419D01*
X105686590Y-99472419D02*
X105496114Y-99472419D01*
X105496114Y-99472419D02*
X105400876Y-99424800D01*
X105400876Y-99424800D02*
X105353257Y-99329561D01*
X105353257Y-99329561D02*
X105353257Y-99281942D01*
X105353257Y-99281942D02*
X105400876Y-99186704D01*
X105400876Y-99186704D02*
X105496114Y-99139085D01*
X105496114Y-99139085D02*
X105638971Y-99139085D01*
X105638971Y-99139085D02*
X105734209Y-99091466D01*
X105734209Y-99091466D02*
X105781828Y-98996228D01*
X105781828Y-98996228D02*
X105781828Y-98948609D01*
X105781828Y-98948609D02*
X105734209Y-98853371D01*
X105734209Y-98853371D02*
X105638971Y-98805752D01*
X105638971Y-98805752D02*
X105496114Y-98805752D01*
X105496114Y-98805752D02*
X105400876Y-98853371D01*
X104305638Y-98996228D02*
X104353257Y-98948609D01*
X104353257Y-98948609D02*
X104448495Y-98900990D01*
X104448495Y-98900990D02*
X104543733Y-98900990D01*
X104543733Y-98900990D02*
X104638971Y-98948609D01*
X104638971Y-98948609D02*
X104686590Y-98996228D01*
X104686590Y-98996228D02*
X104734209Y-99091466D01*
X104734209Y-99091466D02*
X104734209Y-99186704D01*
X104734209Y-99186704D02*
X104686590Y-99281942D01*
X104686590Y-99281942D02*
X104638971Y-99329561D01*
X104638971Y-99329561D02*
X104543733Y-99377180D01*
X104543733Y-99377180D02*
X104448495Y-99377180D01*
X104448495Y-99377180D02*
X104353257Y-99329561D01*
X104353257Y-99329561D02*
X104305638Y-99281942D01*
X104305638Y-98900990D02*
X104305638Y-99281942D01*
X104305638Y-99281942D02*
X104258019Y-99329561D01*
X104258019Y-99329561D02*
X104210400Y-99329561D01*
X104210400Y-99329561D02*
X104115161Y-99281942D01*
X104115161Y-99281942D02*
X104067542Y-99186704D01*
X104067542Y-99186704D02*
X104067542Y-98948609D01*
X104067542Y-98948609D02*
X104162781Y-98805752D01*
X104162781Y-98805752D02*
X104305638Y-98710514D01*
X104305638Y-98710514D02*
X104496114Y-98662895D01*
X104496114Y-98662895D02*
X104686590Y-98710514D01*
X104686590Y-98710514D02*
X104829447Y-98805752D01*
X104829447Y-98805752D02*
X104924685Y-98948609D01*
X104924685Y-98948609D02*
X104972304Y-99139085D01*
X104972304Y-99139085D02*
X104924685Y-99329561D01*
X104924685Y-99329561D02*
X104829447Y-99472419D01*
X104829447Y-99472419D02*
X104686590Y-99567657D01*
X104686590Y-99567657D02*
X104496114Y-99615276D01*
X104496114Y-99615276D02*
X104305638Y-99567657D01*
X104305638Y-99567657D02*
X104162781Y-99472419D01*
X103210400Y-98805752D02*
X103210400Y-99615276D01*
X103210400Y-99615276D02*
X103258019Y-99710514D01*
X103258019Y-99710514D02*
X103305638Y-99758133D01*
X103305638Y-99758133D02*
X103400876Y-99805752D01*
X103400876Y-99805752D02*
X103543733Y-99805752D01*
X103543733Y-99805752D02*
X103638971Y-99758133D01*
X103210400Y-99424800D02*
X103305638Y-99472419D01*
X103305638Y-99472419D02*
X103496114Y-99472419D01*
X103496114Y-99472419D02*
X103591352Y-99424800D01*
X103591352Y-99424800D02*
X103638971Y-99377180D01*
X103638971Y-99377180D02*
X103686590Y-99281942D01*
X103686590Y-99281942D02*
X103686590Y-98996228D01*
X103686590Y-98996228D02*
X103638971Y-98900990D01*
X103638971Y-98900990D02*
X103591352Y-98853371D01*
X103591352Y-98853371D02*
X103496114Y-98805752D01*
X103496114Y-98805752D02*
X103305638Y-98805752D01*
X103305638Y-98805752D02*
X103210400Y-98853371D01*
X102734209Y-99472419D02*
X102734209Y-98805752D01*
X102734209Y-98900990D02*
X102686590Y-98853371D01*
X102686590Y-98853371D02*
X102591352Y-98805752D01*
X102591352Y-98805752D02*
X102448495Y-98805752D01*
X102448495Y-98805752D02*
X102353257Y-98853371D01*
X102353257Y-98853371D02*
X102305638Y-98948609D01*
X102305638Y-98948609D02*
X102305638Y-99472419D01*
X102305638Y-98948609D02*
X102258019Y-98853371D01*
X102258019Y-98853371D02*
X102162781Y-98805752D01*
X102162781Y-98805752D02*
X102019924Y-98805752D01*
X102019924Y-98805752D02*
X101924685Y-98853371D01*
X101924685Y-98853371D02*
X101877066Y-98948609D01*
X101877066Y-98948609D02*
X101877066Y-99472419D01*
X100972305Y-99472419D02*
X100972305Y-98948609D01*
X100972305Y-98948609D02*
X101019924Y-98853371D01*
X101019924Y-98853371D02*
X101115162Y-98805752D01*
X101115162Y-98805752D02*
X101305638Y-98805752D01*
X101305638Y-98805752D02*
X101400876Y-98853371D01*
X100972305Y-99424800D02*
X101067543Y-99472419D01*
X101067543Y-99472419D02*
X101305638Y-99472419D01*
X101305638Y-99472419D02*
X101400876Y-99424800D01*
X101400876Y-99424800D02*
X101448495Y-99329561D01*
X101448495Y-99329561D02*
X101448495Y-99234323D01*
X101448495Y-99234323D02*
X101400876Y-99139085D01*
X101400876Y-99139085D02*
X101305638Y-99091466D01*
X101305638Y-99091466D02*
X101067543Y-99091466D01*
X101067543Y-99091466D02*
X100972305Y-99043847D01*
X100496114Y-99472419D02*
X100496114Y-98805752D01*
X100496114Y-98472419D02*
X100543733Y-98520038D01*
X100543733Y-98520038D02*
X100496114Y-98567657D01*
X100496114Y-98567657D02*
X100448495Y-98520038D01*
X100448495Y-98520038D02*
X100496114Y-98472419D01*
X100496114Y-98472419D02*
X100496114Y-98567657D01*
X99877067Y-99472419D02*
X99972305Y-99424800D01*
X99972305Y-99424800D02*
X100019924Y-99329561D01*
X100019924Y-99329561D02*
X100019924Y-98472419D01*
X99496114Y-99377180D02*
X99448495Y-99424800D01*
X99448495Y-99424800D02*
X99496114Y-99472419D01*
X99496114Y-99472419D02*
X99543733Y-99424800D01*
X99543733Y-99424800D02*
X99496114Y-99377180D01*
X99496114Y-99377180D02*
X99496114Y-99472419D01*
X98591353Y-99424800D02*
X98686591Y-99472419D01*
X98686591Y-99472419D02*
X98877067Y-99472419D01*
X98877067Y-99472419D02*
X98972305Y-99424800D01*
X98972305Y-99424800D02*
X99019924Y-99377180D01*
X99019924Y-99377180D02*
X99067543Y-99281942D01*
X99067543Y-99281942D02*
X99067543Y-98996228D01*
X99067543Y-98996228D02*
X99019924Y-98900990D01*
X99019924Y-98900990D02*
X98972305Y-98853371D01*
X98972305Y-98853371D02*
X98877067Y-98805752D01*
X98877067Y-98805752D02*
X98686591Y-98805752D01*
X98686591Y-98805752D02*
X98591353Y-98853371D01*
X98019924Y-99472419D02*
X98115162Y-99424800D01*
X98115162Y-99424800D02*
X98162781Y-99377180D01*
X98162781Y-99377180D02*
X98210400Y-99281942D01*
X98210400Y-99281942D02*
X98210400Y-98996228D01*
X98210400Y-98996228D02*
X98162781Y-98900990D01*
X98162781Y-98900990D02*
X98115162Y-98853371D01*
X98115162Y-98853371D02*
X98019924Y-98805752D01*
X98019924Y-98805752D02*
X97877067Y-98805752D01*
X97877067Y-98805752D02*
X97781829Y-98853371D01*
X97781829Y-98853371D02*
X97734210Y-98900990D01*
X97734210Y-98900990D02*
X97686591Y-98996228D01*
X97686591Y-98996228D02*
X97686591Y-99281942D01*
X97686591Y-99281942D02*
X97734210Y-99377180D01*
X97734210Y-99377180D02*
X97781829Y-99424800D01*
X97781829Y-99424800D02*
X97877067Y-99472419D01*
X97877067Y-99472419D02*
X98019924Y-99472419D01*
X97258019Y-99472419D02*
X97258019Y-98805752D01*
X97258019Y-98900990D02*
X97210400Y-98853371D01*
X97210400Y-98853371D02*
X97115162Y-98805752D01*
X97115162Y-98805752D02*
X96972305Y-98805752D01*
X96972305Y-98805752D02*
X96877067Y-98853371D01*
X96877067Y-98853371D02*
X96829448Y-98948609D01*
X96829448Y-98948609D02*
X96829448Y-99472419D01*
X96829448Y-98948609D02*
X96781829Y-98853371D01*
X96781829Y-98853371D02*
X96686591Y-98805752D01*
X96686591Y-98805752D02*
X96543734Y-98805752D01*
X96543734Y-98805752D02*
X96448495Y-98853371D01*
X96448495Y-98853371D02*
X96400876Y-98948609D01*
X96400876Y-98948609D02*
X96400876Y-99472419D01*
X121096115Y-97491466D02*
X120334211Y-97491466D01*
X118667544Y-97872419D02*
X118667544Y-97348609D01*
X118667544Y-97348609D02*
X118715163Y-97253371D01*
X118715163Y-97253371D02*
X118810401Y-97205752D01*
X118810401Y-97205752D02*
X119000877Y-97205752D01*
X119000877Y-97205752D02*
X119096115Y-97253371D01*
X118667544Y-97824800D02*
X118762782Y-97872419D01*
X118762782Y-97872419D02*
X119000877Y-97872419D01*
X119000877Y-97872419D02*
X119096115Y-97824800D01*
X119096115Y-97824800D02*
X119143734Y-97729561D01*
X119143734Y-97729561D02*
X119143734Y-97634323D01*
X119143734Y-97634323D02*
X119096115Y-97539085D01*
X119096115Y-97539085D02*
X119000877Y-97491466D01*
X119000877Y-97491466D02*
X118762782Y-97491466D01*
X118762782Y-97491466D02*
X118667544Y-97443847D01*
X118191353Y-97205752D02*
X118191353Y-97872419D01*
X118191353Y-97300990D02*
X118143734Y-97253371D01*
X118143734Y-97253371D02*
X118048496Y-97205752D01*
X118048496Y-97205752D02*
X117905639Y-97205752D01*
X117905639Y-97205752D02*
X117810401Y-97253371D01*
X117810401Y-97253371D02*
X117762782Y-97348609D01*
X117762782Y-97348609D02*
X117762782Y-97872419D01*
X117429448Y-97205752D02*
X117048496Y-97205752D01*
X117286591Y-96872419D02*
X117286591Y-97729561D01*
X117286591Y-97729561D02*
X117238972Y-97824800D01*
X117238972Y-97824800D02*
X117143734Y-97872419D01*
X117143734Y-97872419D02*
X117048496Y-97872419D01*
X116715162Y-97872419D02*
X116715162Y-96872419D01*
X116286591Y-97872419D02*
X116286591Y-97348609D01*
X116286591Y-97348609D02*
X116334210Y-97253371D01*
X116334210Y-97253371D02*
X116429448Y-97205752D01*
X116429448Y-97205752D02*
X116572305Y-97205752D01*
X116572305Y-97205752D02*
X116667543Y-97253371D01*
X116667543Y-97253371D02*
X116715162Y-97300990D01*
X115667543Y-97872419D02*
X115762781Y-97824800D01*
X115762781Y-97824800D02*
X115810400Y-97777180D01*
X115810400Y-97777180D02*
X115858019Y-97681942D01*
X115858019Y-97681942D02*
X115858019Y-97396228D01*
X115858019Y-97396228D02*
X115810400Y-97300990D01*
X115810400Y-97300990D02*
X115762781Y-97253371D01*
X115762781Y-97253371D02*
X115667543Y-97205752D01*
X115667543Y-97205752D02*
X115524686Y-97205752D01*
X115524686Y-97205752D02*
X115429448Y-97253371D01*
X115429448Y-97253371D02*
X115381829Y-97300990D01*
X115381829Y-97300990D02*
X115334210Y-97396228D01*
X115334210Y-97396228D02*
X115334210Y-97681942D01*
X115334210Y-97681942D02*
X115381829Y-97777180D01*
X115381829Y-97777180D02*
X115429448Y-97824800D01*
X115429448Y-97824800D02*
X115524686Y-97872419D01*
X115524686Y-97872419D02*
X115667543Y-97872419D01*
X114905638Y-97205752D02*
X114905638Y-97872419D01*
X114905638Y-97300990D02*
X114858019Y-97253371D01*
X114858019Y-97253371D02*
X114762781Y-97205752D01*
X114762781Y-97205752D02*
X114619924Y-97205752D01*
X114619924Y-97205752D02*
X114524686Y-97253371D01*
X114524686Y-97253371D02*
X114477067Y-97348609D01*
X114477067Y-97348609D02*
X114477067Y-97872419D01*
X114096114Y-97205752D02*
X113858019Y-97872419D01*
X113619924Y-97205752D02*
X113858019Y-97872419D01*
X113858019Y-97872419D02*
X113953257Y-98110514D01*
X113953257Y-98110514D02*
X114000876Y-98158133D01*
X114000876Y-98158133D02*
X114096114Y-98205752D01*
X112810400Y-97824800D02*
X112905638Y-97872419D01*
X112905638Y-97872419D02*
X113096114Y-97872419D01*
X113096114Y-97872419D02*
X113191352Y-97824800D01*
X113191352Y-97824800D02*
X113238971Y-97777180D01*
X113238971Y-97777180D02*
X113286590Y-97681942D01*
X113286590Y-97681942D02*
X113286590Y-97396228D01*
X113286590Y-97396228D02*
X113238971Y-97300990D01*
X113238971Y-97300990D02*
X113191352Y-97253371D01*
X113191352Y-97253371D02*
X113096114Y-97205752D01*
X113096114Y-97205752D02*
X112905638Y-97205752D01*
X112905638Y-97205752D02*
X112810400Y-97253371D01*
X111953257Y-97872419D02*
X111953257Y-97348609D01*
X111953257Y-97348609D02*
X112000876Y-97253371D01*
X112000876Y-97253371D02*
X112096114Y-97205752D01*
X112096114Y-97205752D02*
X112286590Y-97205752D01*
X112286590Y-97205752D02*
X112381828Y-97253371D01*
X111953257Y-97824800D02*
X112048495Y-97872419D01*
X112048495Y-97872419D02*
X112286590Y-97872419D01*
X112286590Y-97872419D02*
X112381828Y-97824800D01*
X112381828Y-97824800D02*
X112429447Y-97729561D01*
X112429447Y-97729561D02*
X112429447Y-97634323D01*
X112429447Y-97634323D02*
X112381828Y-97539085D01*
X112381828Y-97539085D02*
X112286590Y-97491466D01*
X112286590Y-97491466D02*
X112048495Y-97491466D01*
X112048495Y-97491466D02*
X111953257Y-97443847D01*
X111334209Y-97872419D02*
X111429447Y-97824800D01*
X111429447Y-97824800D02*
X111477066Y-97729561D01*
X111477066Y-97729561D02*
X111477066Y-96872419D01*
X111048494Y-97205752D02*
X110810399Y-97872419D01*
X110810399Y-97872419D02*
X110572304Y-97205752D01*
X110048494Y-97872419D02*
X110143732Y-97824800D01*
X110143732Y-97824800D02*
X110191351Y-97777180D01*
X110191351Y-97777180D02*
X110238970Y-97681942D01*
X110238970Y-97681942D02*
X110238970Y-97396228D01*
X110238970Y-97396228D02*
X110191351Y-97300990D01*
X110191351Y-97300990D02*
X110143732Y-97253371D01*
X110143732Y-97253371D02*
X110048494Y-97205752D01*
X110048494Y-97205752D02*
X109905637Y-97205752D01*
X109905637Y-97205752D02*
X109810399Y-97253371D01*
X109810399Y-97253371D02*
X109762780Y-97300990D01*
X109762780Y-97300990D02*
X109715161Y-97396228D01*
X109715161Y-97396228D02*
X109715161Y-97681942D01*
X109715161Y-97681942D02*
X109762780Y-97777180D01*
X109762780Y-97777180D02*
X109810399Y-97824800D01*
X109810399Y-97824800D02*
X109905637Y-97872419D01*
X109905637Y-97872419D02*
X110048494Y-97872419D01*
X108810399Y-96872419D02*
X109286589Y-96872419D01*
X109286589Y-96872419D02*
X109334208Y-97348609D01*
X109334208Y-97348609D02*
X109286589Y-97300990D01*
X109286589Y-97300990D02*
X109191351Y-97253371D01*
X109191351Y-97253371D02*
X108953256Y-97253371D01*
X108953256Y-97253371D02*
X108858018Y-97300990D01*
X108858018Y-97300990D02*
X108810399Y-97348609D01*
X108810399Y-97348609D02*
X108762780Y-97443847D01*
X108762780Y-97443847D02*
X108762780Y-97681942D01*
X108762780Y-97681942D02*
X108810399Y-97777180D01*
X108810399Y-97777180D02*
X108858018Y-97824800D01*
X108858018Y-97824800D02*
X108953256Y-97872419D01*
X108953256Y-97872419D02*
X109191351Y-97872419D01*
X109191351Y-97872419D02*
X109286589Y-97824800D01*
X109286589Y-97824800D02*
X109334208Y-97777180D01*
X108143732Y-96872419D02*
X108048494Y-96872419D01*
X108048494Y-96872419D02*
X107953256Y-96920038D01*
X107953256Y-96920038D02*
X107905637Y-96967657D01*
X107905637Y-96967657D02*
X107858018Y-97062895D01*
X107858018Y-97062895D02*
X107810399Y-97253371D01*
X107810399Y-97253371D02*
X107810399Y-97491466D01*
X107810399Y-97491466D02*
X107858018Y-97681942D01*
X107858018Y-97681942D02*
X107905637Y-97777180D01*
X107905637Y-97777180D02*
X107953256Y-97824800D01*
X107953256Y-97824800D02*
X108048494Y-97872419D01*
X108048494Y-97872419D02*
X108143732Y-97872419D01*
X108143732Y-97872419D02*
X108238970Y-97824800D01*
X108238970Y-97824800D02*
X108286589Y-97777180D01*
X108286589Y-97777180D02*
X108334208Y-97681942D01*
X108334208Y-97681942D02*
X108381827Y-97491466D01*
X108381827Y-97491466D02*
X108381827Y-97253371D01*
X108381827Y-97253371D02*
X108334208Y-97062895D01*
X108334208Y-97062895D02*
X108286589Y-96967657D01*
X108286589Y-96967657D02*
X108238970Y-96920038D01*
X108238970Y-96920038D02*
X108143732Y-96872419D01*
X106762780Y-97396228D02*
X106810399Y-97348609D01*
X106810399Y-97348609D02*
X106905637Y-97300990D01*
X106905637Y-97300990D02*
X107000875Y-97300990D01*
X107000875Y-97300990D02*
X107096113Y-97348609D01*
X107096113Y-97348609D02*
X107143732Y-97396228D01*
X107143732Y-97396228D02*
X107191351Y-97491466D01*
X107191351Y-97491466D02*
X107191351Y-97586704D01*
X107191351Y-97586704D02*
X107143732Y-97681942D01*
X107143732Y-97681942D02*
X107096113Y-97729561D01*
X107096113Y-97729561D02*
X107000875Y-97777180D01*
X107000875Y-97777180D02*
X106905637Y-97777180D01*
X106905637Y-97777180D02*
X106810399Y-97729561D01*
X106810399Y-97729561D02*
X106762780Y-97681942D01*
X106762780Y-97300990D02*
X106762780Y-97681942D01*
X106762780Y-97681942D02*
X106715161Y-97729561D01*
X106715161Y-97729561D02*
X106667542Y-97729561D01*
X106667542Y-97729561D02*
X106572303Y-97681942D01*
X106572303Y-97681942D02*
X106524684Y-97586704D01*
X106524684Y-97586704D02*
X106524684Y-97348609D01*
X106524684Y-97348609D02*
X106619923Y-97205752D01*
X106619923Y-97205752D02*
X106762780Y-97110514D01*
X106762780Y-97110514D02*
X106953256Y-97062895D01*
X106953256Y-97062895D02*
X107143732Y-97110514D01*
X107143732Y-97110514D02*
X107286589Y-97205752D01*
X107286589Y-97205752D02*
X107381827Y-97348609D01*
X107381827Y-97348609D02*
X107429446Y-97539085D01*
X107429446Y-97539085D02*
X107381827Y-97729561D01*
X107381827Y-97729561D02*
X107286589Y-97872419D01*
X107286589Y-97872419D02*
X107143732Y-97967657D01*
X107143732Y-97967657D02*
X106953256Y-98015276D01*
X106953256Y-98015276D02*
X106762780Y-97967657D01*
X106762780Y-97967657D02*
X106619923Y-97872419D01*
X105667542Y-97205752D02*
X105667542Y-98015276D01*
X105667542Y-98015276D02*
X105715161Y-98110514D01*
X105715161Y-98110514D02*
X105762780Y-98158133D01*
X105762780Y-98158133D02*
X105858018Y-98205752D01*
X105858018Y-98205752D02*
X106000875Y-98205752D01*
X106000875Y-98205752D02*
X106096113Y-98158133D01*
X105667542Y-97824800D02*
X105762780Y-97872419D01*
X105762780Y-97872419D02*
X105953256Y-97872419D01*
X105953256Y-97872419D02*
X106048494Y-97824800D01*
X106048494Y-97824800D02*
X106096113Y-97777180D01*
X106096113Y-97777180D02*
X106143732Y-97681942D01*
X106143732Y-97681942D02*
X106143732Y-97396228D01*
X106143732Y-97396228D02*
X106096113Y-97300990D01*
X106096113Y-97300990D02*
X106048494Y-97253371D01*
X106048494Y-97253371D02*
X105953256Y-97205752D01*
X105953256Y-97205752D02*
X105762780Y-97205752D01*
X105762780Y-97205752D02*
X105667542Y-97253371D01*
X105191351Y-97872419D02*
X105191351Y-97205752D01*
X105191351Y-97300990D02*
X105143732Y-97253371D01*
X105143732Y-97253371D02*
X105048494Y-97205752D01*
X105048494Y-97205752D02*
X104905637Y-97205752D01*
X104905637Y-97205752D02*
X104810399Y-97253371D01*
X104810399Y-97253371D02*
X104762780Y-97348609D01*
X104762780Y-97348609D02*
X104762780Y-97872419D01*
X104762780Y-97348609D02*
X104715161Y-97253371D01*
X104715161Y-97253371D02*
X104619923Y-97205752D01*
X104619923Y-97205752D02*
X104477066Y-97205752D01*
X104477066Y-97205752D02*
X104381827Y-97253371D01*
X104381827Y-97253371D02*
X104334208Y-97348609D01*
X104334208Y-97348609D02*
X104334208Y-97872419D01*
X103429447Y-97872419D02*
X103429447Y-97348609D01*
X103429447Y-97348609D02*
X103477066Y-97253371D01*
X103477066Y-97253371D02*
X103572304Y-97205752D01*
X103572304Y-97205752D02*
X103762780Y-97205752D01*
X103762780Y-97205752D02*
X103858018Y-97253371D01*
X103429447Y-97824800D02*
X103524685Y-97872419D01*
X103524685Y-97872419D02*
X103762780Y-97872419D01*
X103762780Y-97872419D02*
X103858018Y-97824800D01*
X103858018Y-97824800D02*
X103905637Y-97729561D01*
X103905637Y-97729561D02*
X103905637Y-97634323D01*
X103905637Y-97634323D02*
X103858018Y-97539085D01*
X103858018Y-97539085D02*
X103762780Y-97491466D01*
X103762780Y-97491466D02*
X103524685Y-97491466D01*
X103524685Y-97491466D02*
X103429447Y-97443847D01*
X102953256Y-97872419D02*
X102953256Y-97205752D01*
X102953256Y-96872419D02*
X103000875Y-96920038D01*
X103000875Y-96920038D02*
X102953256Y-96967657D01*
X102953256Y-96967657D02*
X102905637Y-96920038D01*
X102905637Y-96920038D02*
X102953256Y-96872419D01*
X102953256Y-96872419D02*
X102953256Y-96967657D01*
X102334209Y-97872419D02*
X102429447Y-97824800D01*
X102429447Y-97824800D02*
X102477066Y-97729561D01*
X102477066Y-97729561D02*
X102477066Y-96872419D01*
X101953256Y-97777180D02*
X101905637Y-97824800D01*
X101905637Y-97824800D02*
X101953256Y-97872419D01*
X101953256Y-97872419D02*
X102000875Y-97824800D01*
X102000875Y-97824800D02*
X101953256Y-97777180D01*
X101953256Y-97777180D02*
X101953256Y-97872419D01*
X101048495Y-97824800D02*
X101143733Y-97872419D01*
X101143733Y-97872419D02*
X101334209Y-97872419D01*
X101334209Y-97872419D02*
X101429447Y-97824800D01*
X101429447Y-97824800D02*
X101477066Y-97777180D01*
X101477066Y-97777180D02*
X101524685Y-97681942D01*
X101524685Y-97681942D02*
X101524685Y-97396228D01*
X101524685Y-97396228D02*
X101477066Y-97300990D01*
X101477066Y-97300990D02*
X101429447Y-97253371D01*
X101429447Y-97253371D02*
X101334209Y-97205752D01*
X101334209Y-97205752D02*
X101143733Y-97205752D01*
X101143733Y-97205752D02*
X101048495Y-97253371D01*
X100477066Y-97872419D02*
X100572304Y-97824800D01*
X100572304Y-97824800D02*
X100619923Y-97777180D01*
X100619923Y-97777180D02*
X100667542Y-97681942D01*
X100667542Y-97681942D02*
X100667542Y-97396228D01*
X100667542Y-97396228D02*
X100619923Y-97300990D01*
X100619923Y-97300990D02*
X100572304Y-97253371D01*
X100572304Y-97253371D02*
X100477066Y-97205752D01*
X100477066Y-97205752D02*
X100334209Y-97205752D01*
X100334209Y-97205752D02*
X100238971Y-97253371D01*
X100238971Y-97253371D02*
X100191352Y-97300990D01*
X100191352Y-97300990D02*
X100143733Y-97396228D01*
X100143733Y-97396228D02*
X100143733Y-97681942D01*
X100143733Y-97681942D02*
X100191352Y-97777180D01*
X100191352Y-97777180D02*
X100238971Y-97824800D01*
X100238971Y-97824800D02*
X100334209Y-97872419D01*
X100334209Y-97872419D02*
X100477066Y-97872419D01*
X99715161Y-97872419D02*
X99715161Y-97205752D01*
X99715161Y-97300990D02*
X99667542Y-97253371D01*
X99667542Y-97253371D02*
X99572304Y-97205752D01*
X99572304Y-97205752D02*
X99429447Y-97205752D01*
X99429447Y-97205752D02*
X99334209Y-97253371D01*
X99334209Y-97253371D02*
X99286590Y-97348609D01*
X99286590Y-97348609D02*
X99286590Y-97872419D01*
X99286590Y-97348609D02*
X99238971Y-97253371D01*
X99238971Y-97253371D02*
X99143733Y-97205752D01*
X99143733Y-97205752D02*
X99000876Y-97205752D01*
X99000876Y-97205752D02*
X98905637Y-97253371D01*
X98905637Y-97253371D02*
X98858018Y-97348609D01*
X98858018Y-97348609D02*
X98858018Y-97872419D01*
X147791353Y-95252531D02*
X147553258Y-96252531D01*
X147553258Y-96252531D02*
X147362782Y-95538245D01*
X147362782Y-95538245D02*
X147172306Y-96252531D01*
X147172306Y-96252531D02*
X146934211Y-95252531D01*
X146696115Y-95252531D02*
X146124687Y-95252531D01*
X146410401Y-96252531D02*
X146410401Y-95252531D01*
X145791353Y-95871578D02*
X145029449Y-95871578D01*
X143981830Y-96157292D02*
X144029449Y-96204912D01*
X144029449Y-96204912D02*
X144172306Y-96252531D01*
X144172306Y-96252531D02*
X144267544Y-96252531D01*
X144267544Y-96252531D02*
X144410401Y-96204912D01*
X144410401Y-96204912D02*
X144505639Y-96109673D01*
X144505639Y-96109673D02*
X144553258Y-96014435D01*
X144553258Y-96014435D02*
X144600877Y-95823959D01*
X144600877Y-95823959D02*
X144600877Y-95681102D01*
X144600877Y-95681102D02*
X144553258Y-95490626D01*
X144553258Y-95490626D02*
X144505639Y-95395388D01*
X144505639Y-95395388D02*
X144410401Y-95300150D01*
X144410401Y-95300150D02*
X144267544Y-95252531D01*
X144267544Y-95252531D02*
X144172306Y-95252531D01*
X144172306Y-95252531D02*
X144029449Y-95300150D01*
X144029449Y-95300150D02*
X143981830Y-95347769D01*
X143553258Y-96252531D02*
X143553258Y-95252531D01*
X143124687Y-96252531D02*
X143124687Y-95728721D01*
X143124687Y-95728721D02*
X143172306Y-95633483D01*
X143172306Y-95633483D02*
X143267544Y-95585864D01*
X143267544Y-95585864D02*
X143410401Y-95585864D01*
X143410401Y-95585864D02*
X143505639Y-95633483D01*
X143505639Y-95633483D02*
X143553258Y-95681102D01*
X142219925Y-96252531D02*
X142219925Y-95728721D01*
X142219925Y-95728721D02*
X142267544Y-95633483D01*
X142267544Y-95633483D02*
X142362782Y-95585864D01*
X142362782Y-95585864D02*
X142553258Y-95585864D01*
X142553258Y-95585864D02*
X142648496Y-95633483D01*
X142219925Y-96204912D02*
X142315163Y-96252531D01*
X142315163Y-96252531D02*
X142553258Y-96252531D01*
X142553258Y-96252531D02*
X142648496Y-96204912D01*
X142648496Y-96204912D02*
X142696115Y-96109673D01*
X142696115Y-96109673D02*
X142696115Y-96014435D01*
X142696115Y-96014435D02*
X142648496Y-95919197D01*
X142648496Y-95919197D02*
X142553258Y-95871578D01*
X142553258Y-95871578D02*
X142315163Y-95871578D01*
X142315163Y-95871578D02*
X142219925Y-95823959D01*
X141743734Y-96252531D02*
X141743734Y-95585864D01*
X141743734Y-95776340D02*
X141696115Y-95681102D01*
X141696115Y-95681102D02*
X141648496Y-95633483D01*
X141648496Y-95633483D02*
X141553258Y-95585864D01*
X141553258Y-95585864D02*
X141458020Y-95585864D01*
X140696115Y-95585864D02*
X140696115Y-96395388D01*
X140696115Y-96395388D02*
X140743734Y-96490626D01*
X140743734Y-96490626D02*
X140791353Y-96538245D01*
X140791353Y-96538245D02*
X140886591Y-96585864D01*
X140886591Y-96585864D02*
X141029448Y-96585864D01*
X141029448Y-96585864D02*
X141124686Y-96538245D01*
X140696115Y-96204912D02*
X140791353Y-96252531D01*
X140791353Y-96252531D02*
X140981829Y-96252531D01*
X140981829Y-96252531D02*
X141077067Y-96204912D01*
X141077067Y-96204912D02*
X141124686Y-96157292D01*
X141124686Y-96157292D02*
X141172305Y-96062054D01*
X141172305Y-96062054D02*
X141172305Y-95776340D01*
X141172305Y-95776340D02*
X141124686Y-95681102D01*
X141124686Y-95681102D02*
X141077067Y-95633483D01*
X141077067Y-95633483D02*
X140981829Y-95585864D01*
X140981829Y-95585864D02*
X140791353Y-95585864D01*
X140791353Y-95585864D02*
X140696115Y-95633483D01*
X139838972Y-96204912D02*
X139934210Y-96252531D01*
X139934210Y-96252531D02*
X140124686Y-96252531D01*
X140124686Y-96252531D02*
X140219924Y-96204912D01*
X140219924Y-96204912D02*
X140267543Y-96109673D01*
X140267543Y-96109673D02*
X140267543Y-95728721D01*
X140267543Y-95728721D02*
X140219924Y-95633483D01*
X140219924Y-95633483D02*
X140124686Y-95585864D01*
X140124686Y-95585864D02*
X139934210Y-95585864D01*
X139934210Y-95585864D02*
X139838972Y-95633483D01*
X139838972Y-95633483D02*
X139791353Y-95728721D01*
X139791353Y-95728721D02*
X139791353Y-95823959D01*
X139791353Y-95823959D02*
X140267543Y-95919197D01*
X139362781Y-96252531D02*
X139362781Y-95585864D01*
X139362781Y-95776340D02*
X139315162Y-95681102D01*
X139315162Y-95681102D02*
X139267543Y-95633483D01*
X139267543Y-95633483D02*
X139172305Y-95585864D01*
X139172305Y-95585864D02*
X139077067Y-95585864D01*
X138124685Y-95252531D02*
X137791352Y-96252531D01*
X137791352Y-96252531D02*
X137458019Y-95252531D01*
X136600876Y-96252531D02*
X137172304Y-96252531D01*
X136886590Y-96252531D02*
X136886590Y-95252531D01*
X136886590Y-95252531D02*
X136981828Y-95395388D01*
X136981828Y-95395388D02*
X137077066Y-95490626D01*
X137077066Y-95490626D02*
X137172304Y-95538245D01*
X147743734Y-97576760D02*
X147267544Y-97576760D01*
X147838972Y-97862475D02*
X147505639Y-96862475D01*
X147505639Y-96862475D02*
X147172306Y-97862475D01*
X146838972Y-97195808D02*
X146838972Y-97862475D01*
X146838972Y-97291046D02*
X146791353Y-97243427D01*
X146791353Y-97243427D02*
X146696115Y-97195808D01*
X146696115Y-97195808D02*
X146553258Y-97195808D01*
X146553258Y-97195808D02*
X146458020Y-97243427D01*
X146458020Y-97243427D02*
X146410401Y-97338665D01*
X146410401Y-97338665D02*
X146410401Y-97862475D01*
X146077067Y-97195808D02*
X145696115Y-97195808D01*
X145934210Y-96862475D02*
X145934210Y-97719617D01*
X145934210Y-97719617D02*
X145886591Y-97814856D01*
X145886591Y-97814856D02*
X145791353Y-97862475D01*
X145791353Y-97862475D02*
X145696115Y-97862475D01*
X145362781Y-97862475D02*
X145362781Y-96862475D01*
X144934210Y-97862475D02*
X144934210Y-97338665D01*
X144934210Y-97338665D02*
X144981829Y-97243427D01*
X144981829Y-97243427D02*
X145077067Y-97195808D01*
X145077067Y-97195808D02*
X145219924Y-97195808D01*
X145219924Y-97195808D02*
X145315162Y-97243427D01*
X145315162Y-97243427D02*
X145362781Y-97291046D01*
X144315162Y-97862475D02*
X144410400Y-97814856D01*
X144410400Y-97814856D02*
X144458019Y-97767236D01*
X144458019Y-97767236D02*
X144505638Y-97671998D01*
X144505638Y-97671998D02*
X144505638Y-97386284D01*
X144505638Y-97386284D02*
X144458019Y-97291046D01*
X144458019Y-97291046D02*
X144410400Y-97243427D01*
X144410400Y-97243427D02*
X144315162Y-97195808D01*
X144315162Y-97195808D02*
X144172305Y-97195808D01*
X144172305Y-97195808D02*
X144077067Y-97243427D01*
X144077067Y-97243427D02*
X144029448Y-97291046D01*
X144029448Y-97291046D02*
X143981829Y-97386284D01*
X143981829Y-97386284D02*
X143981829Y-97671998D01*
X143981829Y-97671998D02*
X144029448Y-97767236D01*
X144029448Y-97767236D02*
X144077067Y-97814856D01*
X144077067Y-97814856D02*
X144172305Y-97862475D01*
X144172305Y-97862475D02*
X144315162Y-97862475D01*
X143553257Y-97195808D02*
X143553257Y-97862475D01*
X143553257Y-97291046D02*
X143505638Y-97243427D01*
X143505638Y-97243427D02*
X143410400Y-97195808D01*
X143410400Y-97195808D02*
X143267543Y-97195808D01*
X143267543Y-97195808D02*
X143172305Y-97243427D01*
X143172305Y-97243427D02*
X143124686Y-97338665D01*
X143124686Y-97338665D02*
X143124686Y-97862475D01*
X142743733Y-97195808D02*
X142505638Y-97862475D01*
X142267543Y-97195808D02*
X142505638Y-97862475D01*
X142505638Y-97862475D02*
X142600876Y-98100570D01*
X142600876Y-98100570D02*
X142648495Y-98148189D01*
X142648495Y-98148189D02*
X142743733Y-98195808D01*
X140553257Y-97767236D02*
X140600876Y-97814856D01*
X140600876Y-97814856D02*
X140743733Y-97862475D01*
X140743733Y-97862475D02*
X140838971Y-97862475D01*
X140838971Y-97862475D02*
X140981828Y-97814856D01*
X140981828Y-97814856D02*
X141077066Y-97719617D01*
X141077066Y-97719617D02*
X141124685Y-97624379D01*
X141124685Y-97624379D02*
X141172304Y-97433903D01*
X141172304Y-97433903D02*
X141172304Y-97291046D01*
X141172304Y-97291046D02*
X141124685Y-97100570D01*
X141124685Y-97100570D02*
X141077066Y-97005332D01*
X141077066Y-97005332D02*
X140981828Y-96910094D01*
X140981828Y-96910094D02*
X140838971Y-96862475D01*
X140838971Y-96862475D02*
X140743733Y-96862475D01*
X140743733Y-96862475D02*
X140600876Y-96910094D01*
X140600876Y-96910094D02*
X140553257Y-96957713D01*
X139696114Y-97862475D02*
X139696114Y-97338665D01*
X139696114Y-97338665D02*
X139743733Y-97243427D01*
X139743733Y-97243427D02*
X139838971Y-97195808D01*
X139838971Y-97195808D02*
X140029447Y-97195808D01*
X140029447Y-97195808D02*
X140124685Y-97243427D01*
X139696114Y-97814856D02*
X139791352Y-97862475D01*
X139791352Y-97862475D02*
X140029447Y-97862475D01*
X140029447Y-97862475D02*
X140124685Y-97814856D01*
X140124685Y-97814856D02*
X140172304Y-97719617D01*
X140172304Y-97719617D02*
X140172304Y-97624379D01*
X140172304Y-97624379D02*
X140124685Y-97529141D01*
X140124685Y-97529141D02*
X140029447Y-97481522D01*
X140029447Y-97481522D02*
X139791352Y-97481522D01*
X139791352Y-97481522D02*
X139696114Y-97433903D01*
X139077066Y-97862475D02*
X139172304Y-97814856D01*
X139172304Y-97814856D02*
X139219923Y-97719617D01*
X139219923Y-97719617D02*
X139219923Y-96862475D01*
X138791351Y-97195808D02*
X138553256Y-97862475D01*
X138553256Y-97862475D02*
X138315161Y-97195808D01*
X137791351Y-97862475D02*
X137886589Y-97814856D01*
X137886589Y-97814856D02*
X137934208Y-97767236D01*
X137934208Y-97767236D02*
X137981827Y-97671998D01*
X137981827Y-97671998D02*
X137981827Y-97386284D01*
X137981827Y-97386284D02*
X137934208Y-97291046D01*
X137934208Y-97291046D02*
X137886589Y-97243427D01*
X137886589Y-97243427D02*
X137791351Y-97195808D01*
X137791351Y-97195808D02*
X137648494Y-97195808D01*
X137648494Y-97195808D02*
X137553256Y-97243427D01*
X137553256Y-97243427D02*
X137505637Y-97291046D01*
X137505637Y-97291046D02*
X137458018Y-97386284D01*
X137458018Y-97386284D02*
X137458018Y-97671998D01*
X137458018Y-97671998D02*
X137505637Y-97767236D01*
X137505637Y-97767236D02*
X137553256Y-97814856D01*
X137553256Y-97814856D02*
X137648494Y-97862475D01*
X137648494Y-97862475D02*
X137791351Y-97862475D01*
X135743732Y-96910094D02*
X135838970Y-96862475D01*
X135838970Y-96862475D02*
X135981827Y-96862475D01*
X135981827Y-96862475D02*
X136124684Y-96910094D01*
X136124684Y-96910094D02*
X136219922Y-97005332D01*
X136219922Y-97005332D02*
X136267541Y-97100570D01*
X136267541Y-97100570D02*
X136315160Y-97291046D01*
X136315160Y-97291046D02*
X136315160Y-97433903D01*
X136315160Y-97433903D02*
X136267541Y-97624379D01*
X136267541Y-97624379D02*
X136219922Y-97719617D01*
X136219922Y-97719617D02*
X136124684Y-97814856D01*
X136124684Y-97814856D02*
X135981827Y-97862475D01*
X135981827Y-97862475D02*
X135886589Y-97862475D01*
X135886589Y-97862475D02*
X135743732Y-97814856D01*
X135743732Y-97814856D02*
X135696113Y-97767236D01*
X135696113Y-97767236D02*
X135696113Y-97433903D01*
X135696113Y-97433903D02*
X135886589Y-97433903D01*
X134838970Y-97862475D02*
X134838970Y-97338665D01*
X134838970Y-97338665D02*
X134886589Y-97243427D01*
X134886589Y-97243427D02*
X134981827Y-97195808D01*
X134981827Y-97195808D02*
X135172303Y-97195808D01*
X135172303Y-97195808D02*
X135267541Y-97243427D01*
X134838970Y-97814856D02*
X134934208Y-97862475D01*
X134934208Y-97862475D02*
X135172303Y-97862475D01*
X135172303Y-97862475D02*
X135267541Y-97814856D01*
X135267541Y-97814856D02*
X135315160Y-97719617D01*
X135315160Y-97719617D02*
X135315160Y-97624379D01*
X135315160Y-97624379D02*
X135267541Y-97529141D01*
X135267541Y-97529141D02*
X135172303Y-97481522D01*
X135172303Y-97481522D02*
X134934208Y-97481522D01*
X134934208Y-97481522D02*
X134838970Y-97433903D01*
X134362779Y-97862475D02*
X134362779Y-97195808D01*
X134362779Y-97386284D02*
X134315160Y-97291046D01*
X134315160Y-97291046D02*
X134267541Y-97243427D01*
X134267541Y-97243427D02*
X134172303Y-97195808D01*
X134172303Y-97195808D02*
X134077065Y-97195808D01*
X133315160Y-97814856D02*
X133410398Y-97862475D01*
X133410398Y-97862475D02*
X133600874Y-97862475D01*
X133600874Y-97862475D02*
X133696112Y-97814856D01*
X133696112Y-97814856D02*
X133743731Y-97767236D01*
X133743731Y-97767236D02*
X133791350Y-97671998D01*
X133791350Y-97671998D02*
X133791350Y-97386284D01*
X133791350Y-97386284D02*
X133743731Y-97291046D01*
X133743731Y-97291046D02*
X133696112Y-97243427D01*
X133696112Y-97243427D02*
X133600874Y-97195808D01*
X133600874Y-97195808D02*
X133410398Y-97195808D01*
X133410398Y-97195808D02*
X133315160Y-97243427D01*
X132886588Y-97862475D02*
X132886588Y-97195808D01*
X132791350Y-96814856D02*
X132934207Y-96957713D01*
X131981827Y-97862475D02*
X131981827Y-97338665D01*
X131981827Y-97338665D02*
X132029446Y-97243427D01*
X132029446Y-97243427D02*
X132124684Y-97195808D01*
X132124684Y-97195808D02*
X132315160Y-97195808D01*
X132315160Y-97195808D02*
X132410398Y-97243427D01*
X131981827Y-97814856D02*
X132077065Y-97862475D01*
X132077065Y-97862475D02*
X132315160Y-97862475D01*
X132315160Y-97862475D02*
X132410398Y-97814856D01*
X132410398Y-97814856D02*
X132458017Y-97719617D01*
X132458017Y-97719617D02*
X132458017Y-97624379D01*
X132458017Y-97624379D02*
X132410398Y-97529141D01*
X132410398Y-97529141D02*
X132315160Y-97481522D01*
X132315160Y-97481522D02*
X132077065Y-97481522D01*
X132077065Y-97481522D02*
X131981827Y-97433903D01*
X130743731Y-97481522D02*
X129981827Y-97481522D01*
X128172303Y-97767236D02*
X128219922Y-97814856D01*
X128219922Y-97814856D02*
X128362779Y-97862475D01*
X128362779Y-97862475D02*
X128458017Y-97862475D01*
X128458017Y-97862475D02*
X128600874Y-97814856D01*
X128600874Y-97814856D02*
X128696112Y-97719617D01*
X128696112Y-97719617D02*
X128743731Y-97624379D01*
X128743731Y-97624379D02*
X128791350Y-97433903D01*
X128791350Y-97433903D02*
X128791350Y-97291046D01*
X128791350Y-97291046D02*
X128743731Y-97100570D01*
X128743731Y-97100570D02*
X128696112Y-97005332D01*
X128696112Y-97005332D02*
X128600874Y-96910094D01*
X128600874Y-96910094D02*
X128458017Y-96862475D01*
X128458017Y-96862475D02*
X128362779Y-96862475D01*
X128362779Y-96862475D02*
X128219922Y-96910094D01*
X128219922Y-96910094D02*
X128172303Y-96957713D01*
X127219922Y-97862475D02*
X127791350Y-97862475D01*
X127505636Y-97862475D02*
X127505636Y-96862475D01*
X127505636Y-96862475D02*
X127600874Y-97005332D01*
X127600874Y-97005332D02*
X127696112Y-97100570D01*
X127696112Y-97100570D02*
X127791350Y-97148189D01*
X126267541Y-97862475D02*
X126838969Y-97862475D01*
X126553255Y-97862475D02*
X126553255Y-96862475D01*
X126553255Y-96862475D02*
X126648493Y-97005332D01*
X126648493Y-97005332D02*
X126743731Y-97100570D01*
X126743731Y-97100570D02*
X126838969Y-97148189D01*
X125410398Y-97195808D02*
X125410398Y-97862475D01*
X125648493Y-96814856D02*
X125886588Y-97529141D01*
X125886588Y-97529141D02*
X125267541Y-97529141D01*
X124981826Y-96862475D02*
X124362779Y-96862475D01*
X124362779Y-96862475D02*
X124696112Y-97243427D01*
X124696112Y-97243427D02*
X124553255Y-97243427D01*
X124553255Y-97243427D02*
X124458017Y-97291046D01*
X124458017Y-97291046D02*
X124410398Y-97338665D01*
X124410398Y-97338665D02*
X124362779Y-97433903D01*
X124362779Y-97433903D02*
X124362779Y-97671998D01*
X124362779Y-97671998D02*
X124410398Y-97767236D01*
X124410398Y-97767236D02*
X124458017Y-97814856D01*
X124458017Y-97814856D02*
X124553255Y-97862475D01*
X124553255Y-97862475D02*
X124838969Y-97862475D01*
X124838969Y-97862475D02*
X124934207Y-97814856D01*
X124934207Y-97814856D02*
X124981826Y-97767236D01*
X124029445Y-96862475D02*
X123410398Y-96862475D01*
X123410398Y-96862475D02*
X123743731Y-97243427D01*
X123743731Y-97243427D02*
X123600874Y-97243427D01*
X123600874Y-97243427D02*
X123505636Y-97291046D01*
X123505636Y-97291046D02*
X123458017Y-97338665D01*
X123458017Y-97338665D02*
X123410398Y-97433903D01*
X123410398Y-97433903D02*
X123410398Y-97671998D01*
X123410398Y-97671998D02*
X123458017Y-97767236D01*
X123458017Y-97767236D02*
X123505636Y-97814856D01*
X123505636Y-97814856D02*
X123600874Y-97862475D01*
X123600874Y-97862475D02*
X123886588Y-97862475D01*
X123886588Y-97862475D02*
X123981826Y-97814856D01*
X123981826Y-97814856D02*
X124029445Y-97767236D01*
X147124687Y-99472419D02*
X147458020Y-98996228D01*
X147696115Y-99472419D02*
X147696115Y-98472419D01*
X147696115Y-98472419D02*
X147315163Y-98472419D01*
X147315163Y-98472419D02*
X147219925Y-98520038D01*
X147219925Y-98520038D02*
X147172306Y-98567657D01*
X147172306Y-98567657D02*
X147124687Y-98662895D01*
X147124687Y-98662895D02*
X147124687Y-98805752D01*
X147124687Y-98805752D02*
X147172306Y-98900990D01*
X147172306Y-98900990D02*
X147219925Y-98948609D01*
X147219925Y-98948609D02*
X147315163Y-98996228D01*
X147315163Y-98996228D02*
X147696115Y-98996228D01*
X146553258Y-99472419D02*
X146648496Y-99424800D01*
X146648496Y-99424800D02*
X146696115Y-99377180D01*
X146696115Y-99377180D02*
X146743734Y-99281942D01*
X146743734Y-99281942D02*
X146743734Y-98996228D01*
X146743734Y-98996228D02*
X146696115Y-98900990D01*
X146696115Y-98900990D02*
X146648496Y-98853371D01*
X146648496Y-98853371D02*
X146553258Y-98805752D01*
X146553258Y-98805752D02*
X146410401Y-98805752D01*
X146410401Y-98805752D02*
X146315163Y-98853371D01*
X146315163Y-98853371D02*
X146267544Y-98900990D01*
X146267544Y-98900990D02*
X146219925Y-98996228D01*
X146219925Y-98996228D02*
X146219925Y-99281942D01*
X146219925Y-99281942D02*
X146267544Y-99377180D01*
X146267544Y-99377180D02*
X146315163Y-99424800D01*
X146315163Y-99424800D02*
X146410401Y-99472419D01*
X146410401Y-99472419D02*
X146553258Y-99472419D01*
X145362782Y-99472419D02*
X145362782Y-98472419D01*
X145362782Y-99424800D02*
X145458020Y-99472419D01*
X145458020Y-99472419D02*
X145648496Y-99472419D01*
X145648496Y-99472419D02*
X145743734Y-99424800D01*
X145743734Y-99424800D02*
X145791353Y-99377180D01*
X145791353Y-99377180D02*
X145838972Y-99281942D01*
X145838972Y-99281942D02*
X145838972Y-98996228D01*
X145838972Y-98996228D02*
X145791353Y-98900990D01*
X145791353Y-98900990D02*
X145743734Y-98853371D01*
X145743734Y-98853371D02*
X145648496Y-98805752D01*
X145648496Y-98805752D02*
X145458020Y-98805752D01*
X145458020Y-98805752D02*
X145362782Y-98853371D01*
X144886591Y-99472419D02*
X144886591Y-98805752D01*
X144886591Y-98996228D02*
X144838972Y-98900990D01*
X144838972Y-98900990D02*
X144791353Y-98853371D01*
X144791353Y-98853371D02*
X144696115Y-98805752D01*
X144696115Y-98805752D02*
X144600877Y-98805752D01*
X144267543Y-99472419D02*
X144267543Y-98805752D01*
X144267543Y-98472419D02*
X144315162Y-98520038D01*
X144315162Y-98520038D02*
X144267543Y-98567657D01*
X144267543Y-98567657D02*
X144219924Y-98520038D01*
X144219924Y-98520038D02*
X144267543Y-98472419D01*
X144267543Y-98472419D02*
X144267543Y-98567657D01*
X143362782Y-98805752D02*
X143362782Y-99615276D01*
X143362782Y-99615276D02*
X143410401Y-99710514D01*
X143410401Y-99710514D02*
X143458020Y-99758133D01*
X143458020Y-99758133D02*
X143553258Y-99805752D01*
X143553258Y-99805752D02*
X143696115Y-99805752D01*
X143696115Y-99805752D02*
X143791353Y-99758133D01*
X143362782Y-99424800D02*
X143458020Y-99472419D01*
X143458020Y-99472419D02*
X143648496Y-99472419D01*
X143648496Y-99472419D02*
X143743734Y-99424800D01*
X143743734Y-99424800D02*
X143791353Y-99377180D01*
X143791353Y-99377180D02*
X143838972Y-99281942D01*
X143838972Y-99281942D02*
X143838972Y-98996228D01*
X143838972Y-98996228D02*
X143791353Y-98900990D01*
X143791353Y-98900990D02*
X143743734Y-98853371D01*
X143743734Y-98853371D02*
X143648496Y-98805752D01*
X143648496Y-98805752D02*
X143458020Y-98805752D01*
X143458020Y-98805752D02*
X143362782Y-98853371D01*
X142743734Y-99472419D02*
X142838972Y-99424800D01*
X142838972Y-99424800D02*
X142886591Y-99377180D01*
X142886591Y-99377180D02*
X142934210Y-99281942D01*
X142934210Y-99281942D02*
X142934210Y-98996228D01*
X142934210Y-98996228D02*
X142886591Y-98900990D01*
X142886591Y-98900990D02*
X142838972Y-98853371D01*
X142838972Y-98853371D02*
X142743734Y-98805752D01*
X142743734Y-98805752D02*
X142600877Y-98805752D01*
X142600877Y-98805752D02*
X142505639Y-98853371D01*
X142505639Y-98853371D02*
X142458020Y-98900990D01*
X142458020Y-98900990D02*
X142410401Y-98996228D01*
X142410401Y-98996228D02*
X142410401Y-99281942D01*
X142410401Y-99281942D02*
X142458020Y-99377180D01*
X142458020Y-99377180D02*
X142505639Y-99424800D01*
X142505639Y-99424800D02*
X142600877Y-99472419D01*
X142600877Y-99472419D02*
X142743734Y-99472419D01*
X141219924Y-99472419D02*
X141219924Y-98472419D01*
X141219924Y-98472419D02*
X140886591Y-99186704D01*
X140886591Y-99186704D02*
X140553258Y-98472419D01*
X140553258Y-98472419D02*
X140553258Y-99472419D01*
X139648496Y-99472419D02*
X139648496Y-98948609D01*
X139648496Y-98948609D02*
X139696115Y-98853371D01*
X139696115Y-98853371D02*
X139791353Y-98805752D01*
X139791353Y-98805752D02*
X139981829Y-98805752D01*
X139981829Y-98805752D02*
X140077067Y-98853371D01*
X139648496Y-99424800D02*
X139743734Y-99472419D01*
X139743734Y-99472419D02*
X139981829Y-99472419D01*
X139981829Y-99472419D02*
X140077067Y-99424800D01*
X140077067Y-99424800D02*
X140124686Y-99329561D01*
X140124686Y-99329561D02*
X140124686Y-99234323D01*
X140124686Y-99234323D02*
X140077067Y-99139085D01*
X140077067Y-99139085D02*
X139981829Y-99091466D01*
X139981829Y-99091466D02*
X139743734Y-99091466D01*
X139743734Y-99091466D02*
X139648496Y-99043847D01*
X138743734Y-99472419D02*
X138743734Y-98472419D01*
X138743734Y-99424800D02*
X138838972Y-99472419D01*
X138838972Y-99472419D02*
X139029448Y-99472419D01*
X139029448Y-99472419D02*
X139124686Y-99424800D01*
X139124686Y-99424800D02*
X139172305Y-99377180D01*
X139172305Y-99377180D02*
X139219924Y-99281942D01*
X139219924Y-99281942D02*
X139219924Y-98996228D01*
X139219924Y-98996228D02*
X139172305Y-98900990D01*
X139172305Y-98900990D02*
X139124686Y-98853371D01*
X139124686Y-98853371D02*
X139029448Y-98805752D01*
X139029448Y-98805752D02*
X138838972Y-98805752D01*
X138838972Y-98805752D02*
X138743734Y-98853371D01*
X138267543Y-99472419D02*
X138267543Y-98805752D01*
X138267543Y-98996228D02*
X138219924Y-98900990D01*
X138219924Y-98900990D02*
X138172305Y-98853371D01*
X138172305Y-98853371D02*
X138077067Y-98805752D01*
X138077067Y-98805752D02*
X137981829Y-98805752D01*
X137648495Y-99472419D02*
X137648495Y-98805752D01*
X137648495Y-98472419D02*
X137696114Y-98520038D01*
X137696114Y-98520038D02*
X137648495Y-98567657D01*
X137648495Y-98567657D02*
X137600876Y-98520038D01*
X137600876Y-98520038D02*
X137648495Y-98472419D01*
X137648495Y-98472419D02*
X137648495Y-98567657D01*
X136743734Y-98805752D02*
X136743734Y-99615276D01*
X136743734Y-99615276D02*
X136791353Y-99710514D01*
X136791353Y-99710514D02*
X136838972Y-99758133D01*
X136838972Y-99758133D02*
X136934210Y-99805752D01*
X136934210Y-99805752D02*
X137077067Y-99805752D01*
X137077067Y-99805752D02*
X137172305Y-99758133D01*
X136743734Y-99424800D02*
X136838972Y-99472419D01*
X136838972Y-99472419D02*
X137029448Y-99472419D01*
X137029448Y-99472419D02*
X137124686Y-99424800D01*
X137124686Y-99424800D02*
X137172305Y-99377180D01*
X137172305Y-99377180D02*
X137219924Y-99281942D01*
X137219924Y-99281942D02*
X137219924Y-98996228D01*
X137219924Y-98996228D02*
X137172305Y-98900990D01*
X137172305Y-98900990D02*
X137124686Y-98853371D01*
X137124686Y-98853371D02*
X137029448Y-98805752D01*
X137029448Y-98805752D02*
X136838972Y-98805752D01*
X136838972Y-98805752D02*
X136743734Y-98853371D01*
X135838972Y-99472419D02*
X135838972Y-98948609D01*
X135838972Y-98948609D02*
X135886591Y-98853371D01*
X135886591Y-98853371D02*
X135981829Y-98805752D01*
X135981829Y-98805752D02*
X136172305Y-98805752D01*
X136172305Y-98805752D02*
X136267543Y-98853371D01*
X135838972Y-99424800D02*
X135934210Y-99472419D01*
X135934210Y-99472419D02*
X136172305Y-99472419D01*
X136172305Y-99472419D02*
X136267543Y-99424800D01*
X136267543Y-99424800D02*
X136315162Y-99329561D01*
X136315162Y-99329561D02*
X136315162Y-99234323D01*
X136315162Y-99234323D02*
X136267543Y-99139085D01*
X136267543Y-99139085D02*
X136172305Y-99091466D01*
X136172305Y-99091466D02*
X135934210Y-99091466D01*
X135934210Y-99091466D02*
X135838972Y-99043847D01*
X135219924Y-99472419D02*
X135315162Y-99424800D01*
X135315162Y-99424800D02*
X135362781Y-99329561D01*
X135362781Y-99329561D02*
X135362781Y-98472419D01*
X134077066Y-99472419D02*
X134077066Y-98472419D01*
X134077066Y-98472419D02*
X133743733Y-99186704D01*
X133743733Y-99186704D02*
X133410400Y-98472419D01*
X133410400Y-98472419D02*
X133410400Y-99472419D01*
X132791352Y-99472419D02*
X132886590Y-99424800D01*
X132886590Y-99424800D02*
X132934209Y-99377180D01*
X132934209Y-99377180D02*
X132981828Y-99281942D01*
X132981828Y-99281942D02*
X132981828Y-98996228D01*
X132981828Y-98996228D02*
X132934209Y-98900990D01*
X132934209Y-98900990D02*
X132886590Y-98853371D01*
X132886590Y-98853371D02*
X132791352Y-98805752D01*
X132791352Y-98805752D02*
X132648495Y-98805752D01*
X132648495Y-98805752D02*
X132553257Y-98853371D01*
X132553257Y-98853371D02*
X132505638Y-98900990D01*
X132505638Y-98900990D02*
X132458019Y-98996228D01*
X132458019Y-98996228D02*
X132458019Y-99281942D01*
X132458019Y-99281942D02*
X132505638Y-99377180D01*
X132505638Y-99377180D02*
X132553257Y-99424800D01*
X132553257Y-99424800D02*
X132648495Y-99472419D01*
X132648495Y-99472419D02*
X132791352Y-99472419D01*
X132029447Y-98805752D02*
X132029447Y-99472419D01*
X132029447Y-98900990D02*
X131981828Y-98853371D01*
X131981828Y-98853371D02*
X131886590Y-98805752D01*
X131886590Y-98805752D02*
X131743733Y-98805752D01*
X131743733Y-98805752D02*
X131648495Y-98853371D01*
X131648495Y-98853371D02*
X131600876Y-98948609D01*
X131600876Y-98948609D02*
X131600876Y-99472419D01*
X131267542Y-98805752D02*
X130886590Y-98805752D01*
X131124685Y-98472419D02*
X131124685Y-99329561D01*
X131124685Y-99329561D02*
X131077066Y-99424800D01*
X131077066Y-99424800D02*
X130981828Y-99472419D01*
X130981828Y-99472419D02*
X130886590Y-99472419D01*
X130172304Y-99424800D02*
X130267542Y-99472419D01*
X130267542Y-99472419D02*
X130458018Y-99472419D01*
X130458018Y-99472419D02*
X130553256Y-99424800D01*
X130553256Y-99424800D02*
X130600875Y-99329561D01*
X130600875Y-99329561D02*
X130600875Y-98948609D01*
X130600875Y-98948609D02*
X130553256Y-98853371D01*
X130553256Y-98853371D02*
X130458018Y-98805752D01*
X130458018Y-98805752D02*
X130267542Y-98805752D01*
X130267542Y-98805752D02*
X130172304Y-98853371D01*
X130172304Y-98853371D02*
X130124685Y-98948609D01*
X130124685Y-98948609D02*
X130124685Y-99043847D01*
X130124685Y-99043847D02*
X130600875Y-99139085D01*
X129743732Y-99424800D02*
X129648494Y-99472419D01*
X129648494Y-99472419D02*
X129458018Y-99472419D01*
X129458018Y-99472419D02*
X129362780Y-99424800D01*
X129362780Y-99424800D02*
X129315161Y-99329561D01*
X129315161Y-99329561D02*
X129315161Y-99281942D01*
X129315161Y-99281942D02*
X129362780Y-99186704D01*
X129362780Y-99186704D02*
X129458018Y-99139085D01*
X129458018Y-99139085D02*
X129600875Y-99139085D01*
X129600875Y-99139085D02*
X129696113Y-99091466D01*
X129696113Y-99091466D02*
X129743732Y-98996228D01*
X129743732Y-98996228D02*
X129743732Y-98948609D01*
X129743732Y-98948609D02*
X129696113Y-98853371D01*
X129696113Y-98853371D02*
X129600875Y-98805752D01*
X129600875Y-98805752D02*
X129458018Y-98805752D01*
X129458018Y-98805752D02*
X129362780Y-98853371D01*
X128124684Y-99091466D02*
X127362780Y-99091466D01*
X125553256Y-99377180D02*
X125600875Y-99424800D01*
X125600875Y-99424800D02*
X125743732Y-99472419D01*
X125743732Y-99472419D02*
X125838970Y-99472419D01*
X125838970Y-99472419D02*
X125981827Y-99424800D01*
X125981827Y-99424800D02*
X126077065Y-99329561D01*
X126077065Y-99329561D02*
X126124684Y-99234323D01*
X126124684Y-99234323D02*
X126172303Y-99043847D01*
X126172303Y-99043847D02*
X126172303Y-98900990D01*
X126172303Y-98900990D02*
X126124684Y-98710514D01*
X126124684Y-98710514D02*
X126077065Y-98615276D01*
X126077065Y-98615276D02*
X125981827Y-98520038D01*
X125981827Y-98520038D02*
X125838970Y-98472419D01*
X125838970Y-98472419D02*
X125743732Y-98472419D01*
X125743732Y-98472419D02*
X125600875Y-98520038D01*
X125600875Y-98520038D02*
X125553256Y-98567657D01*
X125172303Y-98567657D02*
X125124684Y-98520038D01*
X125124684Y-98520038D02*
X125029446Y-98472419D01*
X125029446Y-98472419D02*
X124791351Y-98472419D01*
X124791351Y-98472419D02*
X124696113Y-98520038D01*
X124696113Y-98520038D02*
X124648494Y-98567657D01*
X124648494Y-98567657D02*
X124600875Y-98662895D01*
X124600875Y-98662895D02*
X124600875Y-98758133D01*
X124600875Y-98758133D02*
X124648494Y-98900990D01*
X124648494Y-98900990D02*
X125219922Y-99472419D01*
X125219922Y-99472419D02*
X124600875Y-99472419D01*
X123743732Y-98805752D02*
X123743732Y-99472419D01*
X123981827Y-98424800D02*
X124219922Y-99139085D01*
X124219922Y-99139085D02*
X123600875Y-99139085D01*
X122791351Y-98805752D02*
X122791351Y-99472419D01*
X123029446Y-98424800D02*
X123267541Y-99139085D01*
X123267541Y-99139085D02*
X122648494Y-99139085D01*
X121791351Y-98472419D02*
X122267541Y-98472419D01*
X122267541Y-98472419D02*
X122315160Y-98948609D01*
X122315160Y-98948609D02*
X122267541Y-98900990D01*
X122267541Y-98900990D02*
X122172303Y-98853371D01*
X122172303Y-98853371D02*
X121934208Y-98853371D01*
X121934208Y-98853371D02*
X121838970Y-98900990D01*
X121838970Y-98900990D02*
X121791351Y-98948609D01*
X121791351Y-98948609D02*
X121743732Y-99043847D01*
X121743732Y-99043847D02*
X121743732Y-99281942D01*
X121743732Y-99281942D02*
X121791351Y-99377180D01*
X121791351Y-99377180D02*
X121838970Y-99424800D01*
X121838970Y-99424800D02*
X121934208Y-99472419D01*
X121934208Y-99472419D02*
X122172303Y-99472419D01*
X122172303Y-99472419D02*
X122267541Y-99424800D01*
X122267541Y-99424800D02*
X122315160Y-99377180D01*
X121172303Y-98900990D02*
X121267541Y-98853371D01*
X121267541Y-98853371D02*
X121315160Y-98805752D01*
X121315160Y-98805752D02*
X121362779Y-98710514D01*
X121362779Y-98710514D02*
X121362779Y-98662895D01*
X121362779Y-98662895D02*
X121315160Y-98567657D01*
X121315160Y-98567657D02*
X121267541Y-98520038D01*
X121267541Y-98520038D02*
X121172303Y-98472419D01*
X121172303Y-98472419D02*
X120981827Y-98472419D01*
X120981827Y-98472419D02*
X120886589Y-98520038D01*
X120886589Y-98520038D02*
X120838970Y-98567657D01*
X120838970Y-98567657D02*
X120791351Y-98662895D01*
X120791351Y-98662895D02*
X120791351Y-98710514D01*
X120791351Y-98710514D02*
X120838970Y-98805752D01*
X120838970Y-98805752D02*
X120886589Y-98853371D01*
X120886589Y-98853371D02*
X120981827Y-98900990D01*
X120981827Y-98900990D02*
X121172303Y-98900990D01*
X121172303Y-98900990D02*
X121267541Y-98948609D01*
X121267541Y-98948609D02*
X121315160Y-98996228D01*
X121315160Y-98996228D02*
X121362779Y-99091466D01*
X121362779Y-99091466D02*
X121362779Y-99281942D01*
X121362779Y-99281942D02*
X121315160Y-99377180D01*
X121315160Y-99377180D02*
X121267541Y-99424800D01*
X121267541Y-99424800D02*
X121172303Y-99472419D01*
X121172303Y-99472419D02*
X120981827Y-99472419D01*
X120981827Y-99472419D02*
X120886589Y-99424800D01*
X120886589Y-99424800D02*
X120838970Y-99377180D01*
X120838970Y-99377180D02*
X120791351Y-99281942D01*
X120791351Y-99281942D02*
X120791351Y-99091466D01*
X120791351Y-99091466D02*
X120838970Y-98996228D01*
X120838970Y-98996228D02*
X120886589Y-98948609D01*
X120886589Y-98948609D02*
X120981827Y-98900990D01*
%LPC*%
D11*
X133190000Y-81000000D03*
D12*
X140810000Y-81000000D03*
D13*
X125500000Y-79000000D03*
D14*
X125500000Y-104000000D03*
D15*
X137000000Y-88500000D03*
D16*
X137000000Y-103740000D03*
D17*
X105500000Y-78000000D03*
D18*
X105500000Y-88160000D03*
D17*
X105500000Y-93840000D03*
D18*
X105500000Y-104000000D03*
D17*
X115000000Y-78000000D03*
D18*
X115000000Y-88160000D03*
D19*
X148500000Y-91080000D03*
D20*
X148500000Y-86000000D03*
D19*
X95500000Y-85920000D03*
D20*
X95500000Y-91000000D03*
D17*
X115000000Y-93920000D03*
D18*
X115000000Y-104080000D03*
%LPD*%
M02*
