%TF.GenerationSoftware,KiCad,Pcbnew,8.0.6*%
%TF.CreationDate,2024-11-24T22:30:01-06:00*%
%TF.ProjectId,CargadorWalkieTalkie,43617267-6164-46f7-9257-616c6b696554,0.0*%
%TF.SameCoordinates,Original*%
%TF.FileFunction,Legend,Top*%
%TF.FilePolarity,Positive*%
%FSLAX46Y46*%
G04 Gerber Fmt 4.6, Leading zero omitted, Abs format (unit mm)*
G04 Created by KiCad (PCBNEW 8.0.6) date 2024-11-24 22:30:01*
%MOMM*%
%LPD*%
G01*
G04 APERTURE LIST*
%ADD10C,0.150000*%
%ADD11C,0.120000*%
G04 APERTURE END LIST*
D10*
X130229580Y-91666666D02*
X130277200Y-91714285D01*
X130277200Y-91714285D02*
X130324819Y-91857142D01*
X130324819Y-91857142D02*
X130324819Y-91952380D01*
X130324819Y-91952380D02*
X130277200Y-92095237D01*
X130277200Y-92095237D02*
X130181961Y-92190475D01*
X130181961Y-92190475D02*
X130086723Y-92238094D01*
X130086723Y-92238094D02*
X129896247Y-92285713D01*
X129896247Y-92285713D02*
X129753390Y-92285713D01*
X129753390Y-92285713D02*
X129562914Y-92238094D01*
X129562914Y-92238094D02*
X129467676Y-92190475D01*
X129467676Y-92190475D02*
X129372438Y-92095237D01*
X129372438Y-92095237D02*
X129324819Y-91952380D01*
X129324819Y-91952380D02*
X129324819Y-91857142D01*
X129324819Y-91857142D02*
X129372438Y-91714285D01*
X129372438Y-91714285D02*
X129420057Y-91666666D01*
X130324819Y-90714285D02*
X130324819Y-91285713D01*
X130324819Y-90999999D02*
X129324819Y-90999999D01*
X129324819Y-90999999D02*
X129467676Y-91095237D01*
X129467676Y-91095237D02*
X129562914Y-91190475D01*
X129562914Y-91190475D02*
X129610533Y-91285713D01*
X141179819Y-96858094D02*
X140179819Y-96858094D01*
X140179819Y-96858094D02*
X140179819Y-96619999D01*
X140179819Y-96619999D02*
X140227438Y-96477142D01*
X140227438Y-96477142D02*
X140322676Y-96381904D01*
X140322676Y-96381904D02*
X140417914Y-96334285D01*
X140417914Y-96334285D02*
X140608390Y-96286666D01*
X140608390Y-96286666D02*
X140751247Y-96286666D01*
X140751247Y-96286666D02*
X140941723Y-96334285D01*
X140941723Y-96334285D02*
X141036961Y-96381904D01*
X141036961Y-96381904D02*
X141132200Y-96477142D01*
X141132200Y-96477142D02*
X141179819Y-96619999D01*
X141179819Y-96619999D02*
X141179819Y-96858094D01*
X140179819Y-95381904D02*
X140179819Y-95858094D01*
X140179819Y-95858094D02*
X140656009Y-95905713D01*
X140656009Y-95905713D02*
X140608390Y-95858094D01*
X140608390Y-95858094D02*
X140560771Y-95762856D01*
X140560771Y-95762856D02*
X140560771Y-95524761D01*
X140560771Y-95524761D02*
X140608390Y-95429523D01*
X140608390Y-95429523D02*
X140656009Y-95381904D01*
X140656009Y-95381904D02*
X140751247Y-95334285D01*
X140751247Y-95334285D02*
X140989342Y-95334285D01*
X140989342Y-95334285D02*
X141084580Y-95381904D01*
X141084580Y-95381904D02*
X141132200Y-95429523D01*
X141132200Y-95429523D02*
X141179819Y-95524761D01*
X141179819Y-95524761D02*
X141179819Y-95762856D01*
X141179819Y-95762856D02*
X141132200Y-95858094D01*
X141132200Y-95858094D02*
X141084580Y-95905713D01*
X139754819Y-88761904D02*
X138754819Y-88761904D01*
X139754819Y-88190476D02*
X139183390Y-88619047D01*
X138754819Y-88190476D02*
X139326247Y-88761904D01*
X108424819Y-83818094D02*
X107424819Y-83818094D01*
X107424819Y-83818094D02*
X107424819Y-83579999D01*
X107424819Y-83579999D02*
X107472438Y-83437142D01*
X107472438Y-83437142D02*
X107567676Y-83341904D01*
X107567676Y-83341904D02*
X107662914Y-83294285D01*
X107662914Y-83294285D02*
X107853390Y-83246666D01*
X107853390Y-83246666D02*
X107996247Y-83246666D01*
X107996247Y-83246666D02*
X108186723Y-83294285D01*
X108186723Y-83294285D02*
X108281961Y-83341904D01*
X108281961Y-83341904D02*
X108377200Y-83437142D01*
X108377200Y-83437142D02*
X108424819Y-83579999D01*
X108424819Y-83579999D02*
X108424819Y-83818094D01*
X108424819Y-82294285D02*
X108424819Y-82865713D01*
X108424819Y-82579999D02*
X107424819Y-82579999D01*
X107424819Y-82579999D02*
X107567676Y-82675237D01*
X107567676Y-82675237D02*
X107662914Y-82770475D01*
X107662914Y-82770475D02*
X107710533Y-82865713D01*
X108054819Y-78261904D02*
X107054819Y-78261904D01*
X108054819Y-77690476D02*
X107483390Y-78119047D01*
X107054819Y-77690476D02*
X107626247Y-78261904D01*
X139374819Y-80706666D02*
X138898628Y-81039999D01*
X139374819Y-81278094D02*
X138374819Y-81278094D01*
X138374819Y-81278094D02*
X138374819Y-80897142D01*
X138374819Y-80897142D02*
X138422438Y-80801904D01*
X138422438Y-80801904D02*
X138470057Y-80754285D01*
X138470057Y-80754285D02*
X138565295Y-80706666D01*
X138565295Y-80706666D02*
X138708152Y-80706666D01*
X138708152Y-80706666D02*
X138803390Y-80754285D01*
X138803390Y-80754285D02*
X138851009Y-80801904D01*
X138851009Y-80801904D02*
X138898628Y-80897142D01*
X138898628Y-80897142D02*
X138898628Y-81278094D01*
X139374819Y-79754285D02*
X139374819Y-80325713D01*
X139374819Y-80039999D02*
X138374819Y-80039999D01*
X138374819Y-80039999D02*
X138517676Y-80135237D01*
X138517676Y-80135237D02*
X138612914Y-80230475D01*
X138612914Y-80230475D02*
X138660533Y-80325713D01*
X108424819Y-99658094D02*
X107424819Y-99658094D01*
X107424819Y-99658094D02*
X107424819Y-99419999D01*
X107424819Y-99419999D02*
X107472438Y-99277142D01*
X107472438Y-99277142D02*
X107567676Y-99181904D01*
X107567676Y-99181904D02*
X107662914Y-99134285D01*
X107662914Y-99134285D02*
X107853390Y-99086666D01*
X107853390Y-99086666D02*
X107996247Y-99086666D01*
X107996247Y-99086666D02*
X108186723Y-99134285D01*
X108186723Y-99134285D02*
X108281961Y-99181904D01*
X108281961Y-99181904D02*
X108377200Y-99277142D01*
X108377200Y-99277142D02*
X108424819Y-99419999D01*
X108424819Y-99419999D02*
X108424819Y-99658094D01*
X107424819Y-98753332D02*
X107424819Y-98134285D01*
X107424819Y-98134285D02*
X107805771Y-98467618D01*
X107805771Y-98467618D02*
X107805771Y-98324761D01*
X107805771Y-98324761D02*
X107853390Y-98229523D01*
X107853390Y-98229523D02*
X107901009Y-98181904D01*
X107901009Y-98181904D02*
X107996247Y-98134285D01*
X107996247Y-98134285D02*
X108234342Y-98134285D01*
X108234342Y-98134285D02*
X108329580Y-98181904D01*
X108329580Y-98181904D02*
X108377200Y-98229523D01*
X108377200Y-98229523D02*
X108424819Y-98324761D01*
X108424819Y-98324761D02*
X108424819Y-98610475D01*
X108424819Y-98610475D02*
X108377200Y-98705713D01*
X108377200Y-98705713D02*
X108329580Y-98753332D01*
X108054819Y-94101904D02*
X107054819Y-94101904D01*
X108054819Y-93530476D02*
X107483390Y-93959047D01*
X107054819Y-93530476D02*
X107626247Y-94101904D01*
X117924819Y-83818094D02*
X116924819Y-83818094D01*
X116924819Y-83818094D02*
X116924819Y-83579999D01*
X116924819Y-83579999D02*
X116972438Y-83437142D01*
X116972438Y-83437142D02*
X117067676Y-83341904D01*
X117067676Y-83341904D02*
X117162914Y-83294285D01*
X117162914Y-83294285D02*
X117353390Y-83246666D01*
X117353390Y-83246666D02*
X117496247Y-83246666D01*
X117496247Y-83246666D02*
X117686723Y-83294285D01*
X117686723Y-83294285D02*
X117781961Y-83341904D01*
X117781961Y-83341904D02*
X117877200Y-83437142D01*
X117877200Y-83437142D02*
X117924819Y-83579999D01*
X117924819Y-83579999D02*
X117924819Y-83818094D01*
X117020057Y-82865713D02*
X116972438Y-82818094D01*
X116972438Y-82818094D02*
X116924819Y-82722856D01*
X116924819Y-82722856D02*
X116924819Y-82484761D01*
X116924819Y-82484761D02*
X116972438Y-82389523D01*
X116972438Y-82389523D02*
X117020057Y-82341904D01*
X117020057Y-82341904D02*
X117115295Y-82294285D01*
X117115295Y-82294285D02*
X117210533Y-82294285D01*
X117210533Y-82294285D02*
X117353390Y-82341904D01*
X117353390Y-82341904D02*
X117924819Y-82913332D01*
X117924819Y-82913332D02*
X117924819Y-82294285D01*
X117554819Y-78261904D02*
X116554819Y-78261904D01*
X117554819Y-77690476D02*
X116983390Y-78119047D01*
X116554819Y-77690476D02*
X117126247Y-78261904D01*
X153034819Y-88793333D02*
X153749104Y-88793333D01*
X153749104Y-88793333D02*
X153891961Y-88840952D01*
X153891961Y-88840952D02*
X153987200Y-88936190D01*
X153987200Y-88936190D02*
X154034819Y-89079047D01*
X154034819Y-89079047D02*
X154034819Y-89174285D01*
X153130057Y-88364761D02*
X153082438Y-88317142D01*
X153082438Y-88317142D02*
X153034819Y-88221904D01*
X153034819Y-88221904D02*
X153034819Y-87983809D01*
X153034819Y-87983809D02*
X153082438Y-87888571D01*
X153082438Y-87888571D02*
X153130057Y-87840952D01*
X153130057Y-87840952D02*
X153225295Y-87793333D01*
X153225295Y-87793333D02*
X153320533Y-87793333D01*
X153320533Y-87793333D02*
X153463390Y-87840952D01*
X153463390Y-87840952D02*
X154034819Y-88412380D01*
X154034819Y-88412380D02*
X154034819Y-87793333D01*
X100034819Y-88793333D02*
X100749104Y-88793333D01*
X100749104Y-88793333D02*
X100891961Y-88840952D01*
X100891961Y-88840952D02*
X100987200Y-88936190D01*
X100987200Y-88936190D02*
X101034819Y-89079047D01*
X101034819Y-89079047D02*
X101034819Y-89174285D01*
X101034819Y-87793333D02*
X101034819Y-88364761D01*
X101034819Y-88079047D02*
X100034819Y-88079047D01*
X100034819Y-88079047D02*
X100177676Y-88174285D01*
X100177676Y-88174285D02*
X100272914Y-88269523D01*
X100272914Y-88269523D02*
X100320533Y-88364761D01*
X117924819Y-99738094D02*
X116924819Y-99738094D01*
X116924819Y-99738094D02*
X116924819Y-99499999D01*
X116924819Y-99499999D02*
X116972438Y-99357142D01*
X116972438Y-99357142D02*
X117067676Y-99261904D01*
X117067676Y-99261904D02*
X117162914Y-99214285D01*
X117162914Y-99214285D02*
X117353390Y-99166666D01*
X117353390Y-99166666D02*
X117496247Y-99166666D01*
X117496247Y-99166666D02*
X117686723Y-99214285D01*
X117686723Y-99214285D02*
X117781961Y-99261904D01*
X117781961Y-99261904D02*
X117877200Y-99357142D01*
X117877200Y-99357142D02*
X117924819Y-99499999D01*
X117924819Y-99499999D02*
X117924819Y-99738094D01*
X117258152Y-98309523D02*
X117924819Y-98309523D01*
X116877200Y-98547618D02*
X117591485Y-98785713D01*
X117591485Y-98785713D02*
X117591485Y-98166666D01*
X117554819Y-94181904D02*
X116554819Y-94181904D01*
X117554819Y-93610476D02*
X116983390Y-94039047D01*
X116554819Y-93610476D02*
X117126247Y-94181904D01*
D11*
%TO.C,C1*%
X129000000Y-81180000D02*
X127200000Y-81180000D01*
X128870000Y-100620000D02*
X122130000Y-100620000D01*
X128870000Y-85980000D02*
X128870000Y-100620000D01*
X128870000Y-84180000D02*
X127970000Y-85080000D01*
X128870000Y-82380000D02*
X128870000Y-84180000D01*
X128870000Y-82380000D02*
X122130000Y-82380000D01*
X128100000Y-80280000D02*
X128100000Y-82080000D01*
X127970000Y-85080000D02*
X128870000Y-85980000D01*
X125500000Y-102560000D02*
X125500000Y-100620000D01*
X125500000Y-80440000D02*
X125500000Y-82380000D01*
X123030000Y-85080000D02*
X122130000Y-85980000D01*
X122130000Y-85980000D02*
X122130000Y-100620000D01*
X122130000Y-84180000D02*
X123030000Y-85080000D01*
X122130000Y-82380000D02*
X122130000Y-84180000D01*
%TO.C,D5*%
X139725000Y-101005000D02*
X139725000Y-91235000D01*
X139725000Y-92904500D02*
X134275000Y-92904500D01*
X139725000Y-92784500D02*
X134275000Y-92784500D01*
X139725000Y-92664500D02*
X134275000Y-92664500D01*
X139725000Y-91235000D02*
X134275000Y-91235000D01*
X137000000Y-102200000D02*
X137000000Y-101005000D01*
X137000000Y-90040000D02*
X137000000Y-91235000D01*
X134275000Y-101005000D02*
X139725000Y-101005000D01*
X134275000Y-91235000D02*
X134275000Y-101005000D01*
%TO.C,D1*%
X104030000Y-80360000D02*
X104030000Y-85800000D01*
X104030000Y-85800000D02*
X106970000Y-85800000D01*
X105500000Y-79340000D02*
X105500000Y-80360000D01*
X105500000Y-86820000D02*
X105500000Y-85800000D01*
X106970000Y-80360000D02*
X104030000Y-80360000D01*
X106970000Y-81140000D02*
X104030000Y-81140000D01*
X106970000Y-81260000D02*
X104030000Y-81260000D01*
X106970000Y-81380000D02*
X104030000Y-81380000D01*
X106970000Y-85800000D02*
X106970000Y-80360000D01*
%TO.C,R1*%
X137920000Y-78620000D02*
X137920000Y-82460000D01*
X136080000Y-78620000D02*
X136080000Y-82460000D01*
%TO.C,D3*%
X106970000Y-101640000D02*
X106970000Y-96200000D01*
X106970000Y-97220000D02*
X104030000Y-97220000D01*
X106970000Y-97100000D02*
X104030000Y-97100000D01*
X106970000Y-96980000D02*
X104030000Y-96980000D01*
X106970000Y-96200000D02*
X104030000Y-96200000D01*
X105500000Y-102660000D02*
X105500000Y-101640000D01*
X105500000Y-95180000D02*
X105500000Y-96200000D01*
X104030000Y-101640000D02*
X106970000Y-101640000D01*
X104030000Y-96200000D02*
X104030000Y-101640000D01*
%TO.C,D2*%
X116470000Y-85800000D02*
X116470000Y-80360000D01*
X116470000Y-81380000D02*
X113530000Y-81380000D01*
X116470000Y-81260000D02*
X113530000Y-81260000D01*
X116470000Y-81140000D02*
X113530000Y-81140000D01*
X116470000Y-80360000D02*
X113530000Y-80360000D01*
X115000000Y-86820000D02*
X115000000Y-85800000D01*
X115000000Y-79340000D02*
X115000000Y-80360000D01*
X113530000Y-85800000D02*
X116470000Y-85800000D01*
X113530000Y-80360000D02*
X113530000Y-85800000D01*
%TO.C,J2*%
X152310000Y-93540000D02*
X152310000Y-83380000D01*
X152310000Y-83380000D02*
X144690000Y-83380000D01*
X145960000Y-93540000D02*
X145960000Y-83380000D01*
X144690000Y-93540000D02*
X152310000Y-93540000D01*
X144690000Y-83380000D02*
X144690000Y-93540000D01*
%TO.C,J1*%
X91690000Y-83380000D02*
X91690000Y-93540000D01*
X91690000Y-93540000D02*
X99310000Y-93540000D01*
X92960000Y-93540000D02*
X92960000Y-83380000D01*
X99310000Y-83380000D02*
X91690000Y-83380000D01*
X99310000Y-93540000D02*
X99310000Y-83380000D01*
%TO.C,D4*%
X116470000Y-101720000D02*
X116470000Y-96280000D01*
X116470000Y-97300000D02*
X113530000Y-97300000D01*
X116470000Y-97180000D02*
X113530000Y-97180000D01*
X116470000Y-97060000D02*
X113530000Y-97060000D01*
X116470000Y-96280000D02*
X113530000Y-96280000D01*
X115000000Y-102740000D02*
X115000000Y-101720000D01*
X115000000Y-95260000D02*
X115000000Y-96280000D01*
X113530000Y-101720000D02*
X116470000Y-101720000D01*
X113530000Y-96280000D02*
X113530000Y-101720000D01*
%TD*%
M02*
